<svg xmlns="http://www.w3.org/2000/svg" xmlns:xlink="http://www.w3.org/1999/xlink" width="1000" zoomAndPan="magnify" viewBox="0 0 750 374.999991" height="500" preserveAspectRatio="xMidYMid meet" version="1.0"><defs><g/><clipPath id="fa31f12445"><path d="M 8.0625 74.167969 L 148.242188 74.167969 L 148.242188 281.167969 L 8.0625 281.167969 Z M 8.0625 74.167969 " clip-rule="nonzero"/></clipPath></defs><g clip-path="url(#fa31f12445)"><path fill="#475be8" d="M 145.402344 75.785156 C 146.179688 76.394531 146.785156 77.226562 147.140625 78.15625 C 147.308594 78.621094 147.433594 79.105469 147.480469 79.597656 C 147.507812 79.839844 147.515625 80.097656 147.523438 80.328125 L 147.53125 81.011719 L 147.703125 91.976562 L 148.023438 113.902344 C 148.09375 121.210938 148.121094 128.519531 148.085938 135.828125 L 148.042969 146.792969 L 147.957031 157.757812 L 147.835938 168.71875 C 147.796875 172.375 147.738281 176.027344 147.675781 179.683594 C 147.621094 183.339844 147.53125 186.992188 147.449219 190.648438 C 147.371094 194.300781 147.800781 221.363281 147.972656 231.238281 C 148.160156 241.117188 148.242188 250.992188 148.296875 260.867188 L 148.296875 268.277344 L 148.292969 271.980469 L 148.285156 273.832031 L 148.28125 274.292969 L 148.277344 274.527344 L 148.277344 274.640625 L 148.269531 274.78125 C 148.257812 274.972656 148.253906 275.160156 148.234375 275.347656 L 148.144531 275.910156 C 147.839844 277.398438 147 278.761719 145.824219 279.703125 C 144.65625 280.65625 143.113281 281.152344 141.644531 281.132812 L 134.230469 281.074219 C 129.289062 281.035156 124.34375 280.992188 119.402344 280.914062 C 114.457031 280.839844 109.515625 280.714844 104.570312 280.617188 L 97.15625 280.480469 L 93.449219 280.414062 L 89.742188 280.375 C 84.796875 280.324219 79.855469 280.324219 74.910156 280.355469 L 67.496094 280.457031 L 60.082031 280.625 C 55.140625 280.738281 50.195312 280.875 45.253906 280.949219 C 40.308594 281.015625 35.367188 281.042969 30.421875 281.007812 L 23.007812 280.96875 L 15.59375 280.882812 L 14.667969 280.871094 L 14.203125 280.863281 C 14.039062 280.859375 13.851562 280.839844 13.675781 280.828125 C 12.957031 280.792969 12.257812 280.566406 11.601562 280.289062 L 11.128906 280.03125 L 10.894531 279.898438 L 10.675781 279.738281 L 10.246094 279.417969 L 9.863281 279.046875 L 9.671875 278.859375 L 9.503906 278.652344 L 9.175781 278.234375 L 8.898438 277.78125 L 8.761719 277.554688 L 8.65625 277.3125 L 8.441406 276.828125 L 8.289062 276.320312 L 8.21875 276.066406 L 8.171875 275.808594 L 8.089844 275.285156 L 8.074219 274.757812 L 8.070312 274.492188 L 8.097656 274.230469 L 8.15625 273.707031 C 8.191406 273.535156 8.238281 273.363281 8.28125 273.195312 C 8.351562 272.847656 8.511719 272.535156 8.640625 272.210938 C 8.789062 271.898438 8.984375 271.601562 9.15625 271.316406 L 10.210938 269.792969 C 13.023438 265.730469 49.984375 206.121094 65.949219 183.703125 L 71.964844 174.535156 C 73.6875 170.601562 75.976562 168.421875 78.003906 165.382812 L 90.132812 147.109375 C 94.175781 141.015625 98.222656 134.925781 102.300781 128.855469 C 106.371094 122.785156 110.488281 116.738281 114.582031 110.679688 L 120.714844 101.585938 L 123.777344 97.039062 L 126.816406 92.472656 C 128.851562 89.4375 130.851562 86.378906 132.867188 83.328125 L 135.871094 78.738281 L 136.621094 77.589844 C 136.746094 77.398438 136.863281 77.210938 137 77.015625 C 137.140625 76.816406 137.28125 76.617188 137.445312 76.4375 C 138.074219 75.691406 138.914062 75.121094 139.84375 74.800781 C 141.707031 74.164062 143.863281 74.542969 145.402344 75.785156 Z M 108.503906 185.671875 C 107.179688 187.65625 105.964844 189.246094 105.078125 190.40625 C 105.027344 190.46875 104.976562 190.535156 104.925781 190.605469 L 104.300781 192.027344 L 96.210938 204.359375 L 95.804688 204.925781 C 89.597656 213.644531 79.730469 228.785156 70.109375 243.8125 L 74.539062 243.75 L 74.664062 243.75 C 80.179688 243.710938 85.234375 243.71875 90.113281 243.769531 L 94.109375 243.8125 L 105.296875 244.015625 C 107.023438 244.050781 108.746094 244.085938 110.46875 244.125 C 110.820312 244.132812 111.167969 244.140625 111.515625 244.148438 C 111.46875 240.121094 111.410156 236.007812 111.332031 231.933594 L 111.332031 231.878906 C 111.21875 225.386719 110.796875 199.59375 110.796875 192.03125 C 110.796875 191.109375 110.800781 190.433594 110.8125 189.847656 L 110.863281 187.707031 C 110.90625 185.726562 110.949219 183.816406 110.988281 181.933594 Z M 108.503906 185.671875 " fill-opacity="1" fill-rule="nonzero"/></g><path fill="#ffffff" d="M 127.550781 208.890625 C 127.535156 209.183594 127.648438 209.460938 127.824219 209.660156 C 128.003906 209.867188 128.257812 209.996094 128.527344 210.023438 C 128.777344 210.039062 129.007812 210.0625 129.25 210.09375 C 129.492188 210.121094 129.730469 210.15625 129.96875 210.175781 C 130.210938 210.199219 130.449219 210.210938 130.6875 210.222656 C 131.167969 210.242188 131.644531 210.269531 132.125 210.257812 C 133.082031 210.21875 136.597656 210.09375 137.394531 210.132812 C 137.796875 210.148438 138.195312 210.164062 138.59375 210.164062 C 138.996094 210.171875 139.394531 210.164062 139.796875 210.140625 C 140.195312 210.113281 140.59375 210.078125 140.996094 210.039062 L 141.304688 210.007812 C 141.421875 209.996094 141.535156 209.960938 141.640625 209.90625 C 141.847656 209.800781 142.015625 209.625 142.105469 209.421875 C 142.152344 209.316406 142.183594 209.207031 142.195312 209.097656 C 142.195312 209.039062 142.199219 208.984375 142.191406 208.929688 C 142.1875 208.875 142.183594 208.816406 142.167969 208.761719 C 142.117188 208.542969 141.980469 208.347656 141.800781 208.210938 C 141.710938 208.140625 141.609375 208.089844 141.496094 208.054688 C 141.441406 208.039062 141.386719 208.027344 141.328125 208.019531 L 141.242188 208.011719 L 141.167969 208.003906 C 140.96875 207.996094 140.765625 207.980469 140.566406 207.964844 C 140.167969 207.941406 139.765625 207.90625 139.367188 207.886719 C 138.964844 207.863281 138.566406 207.855469 138.167969 207.84375 C 137.367188 207.820312 136.566406 207.796875 135.765625 207.8125 C 134.167969 207.851562 130.488281 208.054688 130.25 208.023438 C 130.011719 207.984375 129.769531 207.960938 129.53125 207.941406 C 129.292969 207.921875 129.054688 207.910156 128.8125 207.90625 C 128.6875 207.90625 128.59375 207.894531 128.414062 207.917969 C 128.253906 207.941406 128.097656 208.007812 127.96875 208.101562 C 127.710938 208.289062 127.558594 208.59375 127.550781 208.890625 Z M 138.167969 195.867188 C 138.566406 195.878906 138.964844 195.886719 139.367188 195.910156 C 139.765625 195.929688 140.167969 195.964844 140.566406 195.992188 C 140.765625 196.003906 140.96875 196.019531 141.167969 196.03125 L 141.242188 196.035156 L 141.328125 196.042969 C 141.386719 196.050781 141.441406 196.0625 141.496094 196.082031 C 141.609375 196.113281 141.710938 196.167969 141.800781 196.234375 C 141.980469 196.375 142.117188 196.566406 142.167969 196.785156 C 142.183594 196.839844 142.1875 196.898438 142.191406 196.953125 C 142.199219 197.007812 142.195312 197.066406 142.195312 197.121094 C 142.183594 197.230469 142.152344 197.34375 142.105469 197.445312 C 142.015625 197.648438 141.847656 197.828125 141.640625 197.929688 C 141.535156 197.984375 141.421875 198.019531 141.304688 198.03125 L 140.996094 198.0625 C 140.59375 198.101562 140.195312 198.136719 139.796875 198.164062 C 139.394531 198.1875 137.246094 198.269531 136.765625 198.246094 C 136.527344 198.234375 136.285156 198.222656 136.046875 198.199219 C 135.808594 198.179688 135.566406 198.144531 135.328125 198.117188 C 135.085938 198.085938 134.855469 198.0625 134.605469 198.046875 C 134.332031 198.019531 134.082031 197.890625 133.902344 197.6875 C 133.726562 197.484375 133.613281 197.207031 133.628906 196.914062 C 133.636719 196.617188 133.789062 196.3125 134.046875 196.125 C 134.175781 196.03125 134.332031 195.964844 134.492188 195.941406 C 134.671875 195.917969 137.367188 195.847656 138.167969 195.867188 Z M 127.96875 184.148438 C 128.097656 184.054688 128.253906 183.992188 128.414062 183.964844 C 128.59375 183.941406 128.6875 183.957031 128.8125 183.953125 C 129.050781 183.957031 129.292969 183.972656 129.53125 183.988281 C 129.769531 184.007812 130.011719 184.03125 130.25 184.070312 C 130.488281 184.105469 134.167969 183.902344 135.765625 183.859375 C 136.566406 183.847656 137.367188 183.871094 138.167969 183.890625 C 138.566406 183.902344 138.964844 183.914062 139.367188 183.933594 C 139.765625 183.953125 140.167969 183.988281 140.566406 184.015625 C 140.765625 184.027344 140.96875 184.042969 141.167969 184.054688 L 141.242188 184.058594 L 141.328125 184.066406 C 141.386719 184.074219 141.441406 184.085938 141.496094 184.105469 C 141.609375 184.136719 141.710938 184.191406 141.800781 184.257812 C 141.980469 184.398438 142.117188 184.59375 142.167969 184.8125 C 142.183594 184.867188 142.1875 184.921875 142.191406 184.976562 C 142.199219 185.03125 142.195312 185.089844 142.195312 185.144531 C 142.183594 185.257812 142.152344 185.367188 142.105469 185.46875 C 142.015625 185.675781 141.847656 185.851562 141.640625 185.953125 C 141.535156 186.007812 141.421875 186.042969 141.304688 186.058594 L 140.996094 186.085938 C 140.59375 186.125 140.195312 186.164062 139.796875 186.1875 C 139.394531 186.210938 138.996094 186.21875 138.59375 186.210938 C 138.195312 186.210938 137.796875 186.195312 137.394531 186.179688 C 136.59375 186.140625 133.082031 186.265625 132.125 186.304688 C 131.644531 186.316406 131.167969 186.292969 130.6875 186.269531 C 130.449219 186.257812 130.210938 186.246094 129.96875 186.222656 C 129.730469 186.203125 129.492188 186.167969 129.25 186.140625 C 129.007812 186.113281 128.777344 186.085938 128.527344 186.070312 C 128.257812 186.042969 128.003906 185.914062 127.824219 185.710938 C 127.648438 185.507812 127.535156 185.230469 127.550781 184.9375 C 127.558594 184.644531 127.710938 184.339844 127.96875 184.148438 Z M 135.765625 171.886719 C 136.566406 171.871094 137.367188 171.894531 138.167969 171.914062 C 138.566406 171.925781 138.964844 171.9375 139.367188 171.957031 C 139.765625 171.976562 140.167969 172.011719 140.566406 172.039062 C 140.765625 172.050781 140.96875 172.070312 141.167969 172.078125 L 141.242188 172.082031 L 141.328125 172.089844 C 141.386719 172.097656 141.441406 172.113281 141.496094 172.128906 C 141.609375 172.164062 141.710938 172.214844 141.800781 172.285156 C 141.980469 172.421875 142.117188 172.617188 142.167969 172.835938 C 142.183594 172.890625 142.1875 172.945312 142.191406 173 C 142.199219 173.058594 142.195312 173.113281 142.195312 173.167969 C 142.183594 173.28125 142.152344 173.390625 142.105469 173.492188 C 142.015625 173.699219 141.847656 173.875 141.640625 173.980469 C 141.535156 174.03125 141.421875 174.066406 141.304688 174.082031 L 140.996094 174.109375 C 140.59375 174.148438 140.195312 174.1875 139.796875 174.210938 C 139.394531 174.238281 138.996094 174.242188 138.59375 174.238281 C 138.195312 174.234375 137.796875 174.222656 137.394531 174.203125 C 136.59375 174.164062 135.570312 174.191406 135.328125 174.164062 C 135.085938 174.136719 134.855469 174.109375 134.605469 174.097656 C 134.332031 174.070312 134.082031 173.9375 133.902344 173.734375 C 133.726562 173.53125 133.613281 173.257812 133.628906 172.960938 C 133.636719 172.667969 133.789062 172.363281 134.046875 172.171875 C 134.175781 172.078125 134.332031 172.015625 134.492188 171.988281 C 134.671875 171.96875 135.023438 171.902344 135.765625 171.886719 Z M 127.96875 160.199219 C 128.097656 160.105469 128.253906 160.039062 128.414062 160.015625 C 128.59375 159.992188 128.6875 160.003906 128.8125 160.003906 C 129.050781 160.007812 129.292969 160.019531 129.53125 160.039062 C 129.769531 160.058594 130.011719 160.082031 130.25 160.117188 C 130.488281 160.152344 134.167969 159.949219 135.765625 159.910156 C 136.566406 159.894531 137.367188 159.917969 138.167969 159.941406 C 138.566406 159.953125 138.964844 159.960938 139.367188 159.984375 C 139.765625 160.003906 140.167969 160.039062 140.566406 160.0625 C 140.765625 160.078125 140.96875 160.09375 141.167969 160.101562 L 141.242188 160.105469 L 141.328125 160.117188 C 141.386719 160.125 141.441406 160.136719 141.496094 160.152344 C 141.609375 160.1875 141.710938 160.238281 141.800781 160.308594 C 141.980469 160.445312 142.117188 160.640625 142.167969 160.859375 C 142.183594 160.914062 142.1875 160.96875 142.191406 161.027344 C 142.199219 161.082031 142.195312 161.136719 142.195312 161.195312 C 142.183594 161.304688 142.152344 161.414062 142.105469 161.519531 C 142.015625 161.722656 141.847656 161.898438 141.640625 162.003906 C 141.535156 162.058594 141.421875 162.09375 141.304688 162.105469 L 140.996094 162.136719 C 140.59375 162.171875 140.195312 162.210938 139.796875 162.238281 C 139.394531 162.261719 138.996094 162.269531 138.59375 162.261719 C 138.195312 162.261719 137.796875 162.246094 137.394531 162.230469 C 136.59375 162.191406 133.082031 162.316406 132.125 162.351562 C 131.644531 162.367188 131.167969 162.339844 130.6875 162.320312 C 130.449219 162.308594 130.210938 162.296875 129.96875 162.273438 C 129.730469 162.253906 129.492188 162.21875 129.25 162.191406 C 129.007812 162.160156 128.777344 162.136719 128.527344 162.121094 C 128.257812 162.09375 128.003906 161.964844 127.824219 161.757812 C 127.648438 161.558594 127.535156 161.28125 127.550781 160.984375 C 127.558594 160.691406 127.710938 160.386719 127.96875 160.199219 Z M 135.765625 147.933594 C 136.566406 147.917969 137.367188 147.941406 138.167969 147.964844 C 138.566406 147.976562 138.964844 147.984375 139.367188 148.007812 C 139.765625 148.027344 140.167969 148.0625 140.566406 148.089844 C 140.765625 148.101562 140.96875 148.117188 141.167969 148.128906 L 141.242188 148.132812 L 141.328125 148.140625 C 141.386719 148.148438 141.441406 148.160156 141.496094 148.179688 C 141.609375 148.210938 141.710938 148.265625 141.800781 148.332031 C 141.980469 148.472656 142.117188 148.664062 142.167969 148.882812 C 142.183594 148.9375 142.1875 148.996094 142.191406 149.050781 C 142.199219 149.105469 142.195312 149.164062 142.195312 149.21875 C 142.183594 149.328125 142.152344 149.441406 142.105469 149.542969 C 142.015625 149.746094 141.847656 149.925781 141.640625 150.027344 C 141.535156 150.082031 141.421875 150.117188 141.304688 150.128906 L 140.996094 150.160156 C 140.59375 150.199219 140.195312 150.234375 139.796875 150.261719 C 139.394531 150.285156 137.246094 150.367188 136.765625 150.34375 C 136.527344 150.332031 136.285156 150.320312 136.046875 150.296875 C 135.808594 150.277344 135.566406 150.242188 135.328125 150.214844 C 135.085938 150.183594 134.855469 150.160156 134.605469 150.144531 C 134.332031 150.117188 134.082031 149.988281 133.902344 149.785156 C 133.726562 149.582031 133.613281 149.304688 133.628906 149.011719 C 133.636719 148.714844 133.789062 148.410156 134.046875 148.222656 C 134.175781 148.128906 134.332031 148.0625 134.492188 148.039062 C 134.671875 148.015625 135.023438 147.953125 135.765625 147.933594 Z M 127.96875 136.246094 C 128.097656 136.152344 128.253906 136.089844 128.414062 136.0625 C 128.59375 136.039062 128.6875 136.054688 128.8125 136.050781 C 129.050781 136.054688 129.292969 136.070312 129.53125 136.085938 C 129.769531 136.105469 130.011719 136.128906 130.25 136.167969 C 130.488281 136.203125 134.167969 136 135.765625 135.957031 C 136.566406 135.945312 137.367188 135.96875 138.167969 135.988281 C 138.566406 136 138.964844 136.011719 139.367188 136.03125 C 139.765625 136.050781 140.167969 136.085938 140.566406 136.113281 C 140.765625 136.125 140.96875 136.140625 141.167969 136.152344 L 141.242188 136.15625 L 141.328125 136.164062 C 141.386719 136.171875 141.441406 136.183594 141.496094 136.203125 C 141.609375 136.234375 141.710938 136.289062 141.800781 136.355469 C 141.980469 136.496094 142.117188 136.6875 142.167969 136.910156 C 142.183594 136.964844 142.1875 137.019531 142.191406 137.074219 C 142.199219 137.128906 142.195312 137.1875 142.195312 137.242188 C 142.183594 137.355469 142.152344 137.464844 142.105469 137.566406 C 142.015625 137.773438 141.847656 137.949219 141.640625 138.050781 C 141.535156 138.105469 141.421875 138.140625 141.304688 138.15625 L 140.996094 138.183594 C 140.59375 138.222656 140.195312 138.261719 139.796875 138.285156 C 139.394531 138.308594 138.996094 138.316406 138.59375 138.308594 C 138.195312 138.308594 137.796875 138.292969 137.394531 138.277344 C 136.59375 138.238281 133.082031 138.363281 132.125 138.402344 C 131.644531 138.414062 131.167969 138.390625 130.6875 138.367188 C 130.449219 138.355469 130.210938 138.34375 129.96875 138.320312 C 129.730469 138.300781 129.492188 138.265625 129.25 138.238281 C 129.007812 138.210938 128.777344 138.183594 128.527344 138.167969 C 128.257812 138.140625 128.003906 138.011719 127.824219 137.808594 C 127.648438 137.605469 127.535156 137.328125 127.550781 137.035156 C 127.558594 136.742188 127.710938 136.433594 127.96875 136.246094 Z M 141.640625 126.078125 C 141.535156 126.128906 141.421875 126.164062 141.304688 126.179688 L 140.996094 126.207031 C 140.59375 126.246094 140.195312 126.285156 139.796875 126.308594 C 139.394531 126.335938 137.246094 126.414062 136.765625 126.390625 C 136.527344 126.378906 136.285156 126.367188 136.046875 126.347656 C 135.808594 126.328125 135.570312 126.289062 135.328125 126.261719 C 135.085938 126.234375 134.855469 126.207031 134.605469 126.195312 C 134.332031 126.164062 134.082031 126.035156 133.902344 125.832031 C 133.726562 125.628906 133.613281 125.355469 133.628906 125.058594 C 133.636719 124.765625 133.789062 124.460938 134.046875 124.269531 C 134.175781 124.175781 134.332031 124.113281 134.492188 124.089844 C 134.671875 124.066406 135.023438 124 135.765625 123.984375 C 136.566406 123.96875 137.367188 123.992188 138.167969 124.011719 C 138.566406 124.023438 138.964844 124.035156 139.367188 124.054688 C 139.765625 124.074219 140.167969 124.109375 140.566406 124.136719 C 140.765625 124.148438 140.964844 124.167969 141.167969 124.175781 L 141.242188 124.179688 L 141.328125 124.1875 C 141.386719 124.195312 141.441406 124.210938 141.496094 124.226562 C 141.609375 124.257812 141.710938 124.3125 141.800781 124.382812 C 141.980469 124.519531 142.117188 124.714844 142.167969 124.933594 C 142.183594 124.988281 142.1875 125.042969 142.191406 125.097656 C 142.199219 125.15625 142.195312 125.210938 142.191406 125.265625 C 142.183594 125.378906 142.152344 125.488281 142.105469 125.589844 C 142.015625 125.796875 141.847656 125.972656 141.640625 126.078125 Z M 141.640625 114.101562 C 141.535156 114.15625 141.421875 114.191406 141.304688 114.203125 L 140.996094 114.234375 C 140.59375 114.269531 140.195312 114.308594 139.796875 114.335938 C 139.394531 114.359375 138.996094 114.367188 138.597656 114.359375 C 138.195312 114.355469 137.796875 114.34375 137.394531 114.324219 C 136.597656 114.289062 133.082031 114.414062 132.125 114.449219 C 131.644531 114.464844 131.167969 114.4375 130.6875 114.414062 C 130.449219 114.402344 130.210938 114.394531 129.96875 114.371094 C 129.730469 114.351562 129.492188 114.316406 129.25 114.289062 C 129.007812 114.257812 128.777344 114.234375 128.527344 114.21875 C 128.257812 114.191406 128.003906 114.0625 127.828125 113.855469 C 127.648438 113.65625 127.539062 113.378906 127.550781 113.082031 C 127.558594 112.789062 127.710938 112.484375 127.972656 112.296875 C 128.101562 112.199219 128.253906 112.136719 128.414062 112.113281 C 128.59375 112.089844 128.6875 112.101562 128.8125 112.101562 C 129.054688 112.105469 129.292969 112.117188 129.53125 112.136719 C 129.773438 112.152344 130.011719 112.179688 130.25 112.214844 C 130.488281 112.25 134.167969 112.046875 135.765625 112.007812 C 136.566406 111.992188 137.367188 112.015625 138.167969 112.039062 C 138.566406 112.046875 138.96875 112.058594 139.367188 112.082031 C 139.765625 112.097656 140.167969 112.132812 140.566406 112.160156 C 140.765625 112.175781 140.96875 112.191406 141.167969 112.199219 L 141.242188 112.203125 L 141.328125 112.210938 C 141.386719 112.222656 141.441406 112.234375 141.496094 112.25 C 141.609375 112.285156 141.710938 112.335938 141.800781 112.40625 C 141.980469 112.542969 142.117188 112.738281 142.167969 112.957031 C 142.183594 113.011719 142.1875 113.066406 142.191406 113.125 C 142.199219 113.179688 142.199219 113.234375 142.195312 113.292969 C 142.183594 113.402344 142.152344 113.511719 142.105469 113.613281 C 142.015625 113.820312 141.847656 113.996094 141.640625 114.101562 Z M 127.667969 254.644531 C 127.796875 254.550781 127.949219 254.484375 128.113281 254.460938 C 128.292969 254.4375 128.382812 254.449219 128.511719 254.449219 C 128.75 254.453125 128.988281 254.464844 129.230469 254.484375 C 129.46875 254.503906 129.707031 254.527344 129.949219 254.5625 C 130.1875 254.597656 133.863281 254.394531 135.464844 254.355469 C 136.265625 254.339844 137.0625 254.363281 137.863281 254.386719 C 138.265625 254.398438 138.664062 254.40625 139.0625 254.429688 C 139.464844 254.449219 139.863281 254.484375 140.265625 254.507812 C 140.464844 254.523438 140.664062 254.539062 140.863281 254.546875 L 140.9375 254.550781 L 141.027344 254.5625 C 141.082031 254.570312 141.140625 254.582031 141.195312 254.597656 C 141.304688 254.632812 141.410156 254.683594 141.5 254.753906 C 141.679688 254.890625 141.8125 255.085938 141.867188 255.304688 C 141.878906 255.359375 141.882812 255.414062 141.890625 255.472656 C 141.898438 255.527344 141.894531 255.582031 141.890625 255.640625 C 141.878906 255.75 141.851562 255.859375 141.804688 255.964844 C 141.710938 256.167969 141.546875 256.34375 141.335938 256.449219 C 141.234375 256.503906 141.117188 256.539062 141 256.550781 L 140.691406 256.582031 C 140.292969 256.617188 139.890625 256.65625 139.492188 256.683594 C 139.09375 256.707031 138.691406 256.714844 138.292969 256.707031 C 137.894531 256.707031 137.492188 256.691406 137.09375 256.675781 C 136.292969 256.636719 132.777344 256.761719 131.820312 256.796875 C 131.34375 256.8125 130.863281 256.785156 130.386719 256.765625 C 130.144531 256.753906 129.90625 256.742188 129.667969 256.71875 C 129.425781 256.699219 129.1875 256.664062 128.949219 256.636719 C 128.707031 256.605469 128.476562 256.582031 128.222656 256.566406 C 127.953125 256.539062 127.699219 256.410156 127.523438 256.203125 C 127.347656 256.003906 127.234375 255.726562 127.246094 255.429688 C 127.257812 255.136719 127.40625 254.832031 127.667969 254.644531 Z M 137.863281 242.410156 C 138.261719 242.421875 138.664062 242.433594 139.0625 242.453125 C 139.464844 242.472656 139.863281 242.507812 140.265625 242.535156 C 140.464844 242.546875 140.664062 242.5625 140.863281 242.574219 L 140.9375 242.578125 L 141.027344 242.585938 C 141.082031 242.59375 141.140625 242.605469 141.195312 242.625 C 141.304688 242.65625 141.40625 242.710938 141.5 242.777344 C 141.679688 242.917969 141.8125 243.109375 141.867188 243.332031 C 141.878906 243.386719 141.882812 243.441406 141.890625 243.496094 C 141.894531 243.550781 141.894531 243.609375 141.890625 243.664062 C 141.878906 243.773438 141.851562 243.886719 141.804688 243.988281 C 141.710938 244.195312 141.546875 244.371094 141.335938 244.472656 C 141.234375 244.527344 141.117188 244.5625 141 244.574219 L 140.691406 244.605469 C 140.292969 244.644531 139.890625 244.679688 139.492188 244.707031 C 139.09375 244.730469 136.941406 244.8125 136.460938 244.789062 C 136.222656 244.777344 135.984375 244.765625 135.742188 244.742188 C 135.503906 244.722656 135.265625 244.6875 135.027344 244.660156 C 134.785156 244.632812 134.550781 244.605469 134.300781 244.589844 C 134.03125 244.5625 133.777344 244.433594 133.601562 244.230469 C 133.421875 244.027344 133.3125 243.75 133.324219 243.457031 C 133.332031 243.160156 133.484375 242.855469 133.746094 242.667969 C 133.875 242.574219 134.027344 242.507812 134.1875 242.484375 C 134.371094 242.460938 137.0625 242.390625 137.863281 242.410156 Z M 127.667969 230.691406 C 127.796875 230.597656 127.949219 230.535156 128.113281 230.507812 C 128.292969 230.484375 128.382812 230.5 128.511719 230.5 C 128.75 230.503906 128.988281 230.515625 129.230469 230.53125 C 129.46875 230.550781 129.707031 230.574219 129.949219 230.613281 C 130.1875 230.648438 133.863281 230.445312 135.464844 230.40625 C 136.265625 230.390625 137.0625 230.414062 137.863281 230.433594 C 138.265625 230.445312 138.664062 230.457031 139.0625 230.476562 C 139.464844 230.496094 139.863281 230.53125 140.265625 230.558594 C 140.464844 230.570312 140.664062 230.585938 140.863281 230.597656 L 140.9375 230.601562 L 141.027344 230.609375 C 141.082031 230.617188 141.140625 230.632812 141.195312 230.648438 C 141.304688 230.679688 141.410156 230.734375 141.5 230.800781 C 141.679688 230.941406 141.8125 231.136719 141.867188 231.355469 C 141.878906 231.410156 141.882812 231.464844 141.890625 231.519531 C 141.898438 231.578125 141.894531 231.632812 141.890625 231.6875 C 141.878906 231.800781 141.851562 231.910156 141.804688 232.011719 C 141.710938 232.21875 141.546875 232.394531 141.335938 232.5 C 141.234375 232.550781 141.117188 232.585938 141 232.601562 L 140.691406 232.628906 C 140.292969 232.667969 139.890625 232.707031 139.492188 232.730469 C 139.09375 232.753906 138.691406 232.761719 138.292969 232.757812 C 137.894531 232.753906 137.492188 232.738281 137.09375 232.722656 C 136.292969 232.683594 132.777344 232.8125 131.820312 232.847656 C 131.34375 232.859375 130.863281 232.835938 130.386719 232.8125 C 130.144531 232.800781 129.90625 232.789062 129.667969 232.769531 C 129.425781 232.746094 129.1875 232.710938 128.949219 232.683594 C 128.707031 232.65625 128.476562 232.628906 128.222656 232.613281 C 127.953125 232.585938 127.699219 232.457031 127.523438 232.253906 C 127.347656 232.050781 127.234375 231.777344 127.246094 231.480469 C 127.257812 231.1875 127.40625 230.882812 127.667969 230.691406 Z M 135.464844 218.429688 C 136.261719 218.414062 137.0625 218.4375 137.863281 218.460938 C 138.261719 218.46875 138.664062 218.480469 139.0625 218.5 C 139.464844 218.519531 139.863281 218.554688 140.265625 218.582031 C 140.464844 218.59375 140.664062 218.613281 140.863281 218.621094 L 140.9375 218.625 L 141.027344 218.632812 C 141.082031 218.640625 141.140625 218.65625 141.195312 218.671875 C 141.304688 218.707031 141.40625 218.757812 141.5 218.828125 C 141.679688 218.964844 141.8125 219.160156 141.867188 219.378906 C 141.878906 219.433594 141.882812 219.488281 141.890625 219.546875 C 141.894531 219.601562 141.894531 219.65625 141.890625 219.710938 C 141.878906 219.824219 141.851562 219.933594 141.804688 220.035156 C 141.710938 220.242188 141.546875 220.417969 141.335938 220.523438 C 141.234375 220.574219 141.117188 220.609375 141 220.625 L 140.691406 220.652344 C 140.292969 220.691406 139.890625 220.730469 139.492188 220.753906 C 139.09375 220.78125 138.691406 220.785156 138.292969 220.78125 C 137.890625 220.777344 137.492188 220.765625 137.09375 220.746094 C 136.292969 220.707031 135.265625 220.734375 135.027344 220.707031 C 134.785156 220.679688 134.550781 220.652344 134.300781 220.640625 C 134.03125 220.609375 133.777344 220.480469 133.601562 220.277344 C 133.421875 220.074219 133.3125 219.800781 133.324219 219.503906 C 133.332031 219.210938 133.484375 218.90625 133.746094 218.714844 C 133.875 218.621094 134.027344 218.558594 134.1875 218.535156 C 134.371094 218.511719 134.71875 218.449219 135.464844 218.429688 Z M 28.558594 259.785156 C 28.652344 259.914062 28.71875 260.070312 28.742188 260.230469 C 28.765625 260.410156 28.753906 260.503906 28.753906 260.628906 C 28.75 260.867188 28.738281 261.105469 28.71875 261.347656 C 28.699219 261.585938 28.675781 261.824219 28.640625 262.0625 C 28.605469 262.304688 28.808594 265.976562 28.847656 267.574219 C 28.863281 268.375 28.839844 269.171875 28.816406 269.972656 C 28.804688 270.371094 28.796875 270.769531 28.773438 271.171875 C 28.753906 271.570312 28.71875 271.96875 28.695312 272.371094 C 28.679688 272.570312 28.664062 272.769531 28.65625 272.96875 L 28.652344 273.042969 L 28.640625 273.132812 C 28.632812 273.1875 28.621094 273.246094 28.605469 273.300781 C 28.570312 273.410156 28.519531 273.511719 28.449219 273.605469 C 28.3125 273.78125 28.117188 273.917969 27.898438 273.96875 C 27.84375 273.984375 27.785156 273.988281 27.730469 273.992188 C 27.675781 274 27.617188 274 27.5625 273.996094 C 27.453125 273.984375 27.339844 273.957031 27.238281 273.90625 C 27.03125 273.816406 26.855469 273.652344 26.75 273.441406 C 26.699219 273.339844 26.664062 273.222656 26.648438 273.105469 L 26.621094 272.796875 C 26.582031 272.398438 26.542969 272 26.519531 271.597656 C 26.496094 271.199219 26.488281 270.800781 26.492188 270.402344 C 26.496094 270 26.511719 269.601562 26.527344 269.203125 C 26.566406 268.402344 26.4375 264.894531 26.402344 263.9375 C 26.390625 263.457031 26.414062 262.980469 26.4375 262.5 C 26.449219 262.261719 26.460938 262.023438 26.480469 261.785156 C 26.503906 261.546875 26.539062 261.304688 26.566406 261.066406 C 26.59375 260.824219 26.621094 260.59375 26.636719 260.34375 C 26.664062 260.074219 26.792969 259.820312 26.996094 259.640625 C 27.199219 259.464844 27.476562 259.355469 27.769531 259.367188 C 28.066406 259.375 28.371094 259.527344 28.558594 259.785156 Z M 40.804688 269.972656 C 40.792969 270.371094 40.785156 270.769531 40.761719 271.171875 C 40.742188 271.570312 40.707031 271.96875 40.683594 272.371094 C 40.667969 272.570312 40.652344 272.769531 40.644531 272.96875 L 40.636719 273.042969 L 40.628906 273.132812 C 40.621094 273.1875 40.609375 273.246094 40.59375 273.300781 C 40.558594 273.410156 40.507812 273.511719 40.4375 273.605469 C 40.296875 273.78125 40.105469 273.917969 39.882812 273.96875 C 39.828125 273.984375 39.773438 273.988281 39.71875 273.992188 C 39.664062 274 39.605469 274 39.550781 273.996094 C 39.4375 273.984375 39.328125 273.957031 39.226562 273.90625 C 39.019531 273.816406 38.84375 273.652344 38.738281 273.441406 C 38.6875 273.339844 38.652344 273.222656 38.636719 273.105469 L 38.609375 272.796875 C 38.570312 272.398438 38.53125 272 38.507812 271.597656 C 38.480469 271.199219 38.402344 269.050781 38.425781 268.574219 C 38.4375 268.332031 38.449219 268.09375 38.46875 267.855469 C 38.488281 267.617188 38.527344 267.375 38.554688 267.136719 C 38.582031 266.894531 38.609375 266.664062 38.621094 266.414062 C 38.652344 266.144531 38.78125 265.890625 38.984375 265.714844 C 39.1875 265.535156 39.464844 265.425781 39.757812 265.4375 C 40.054688 265.445312 40.359375 265.597656 40.546875 265.859375 C 40.640625 265.988281 40.707031 266.140625 40.730469 266.300781 C 40.753906 266.480469 40.828125 269.171875 40.804688 269.972656 Z M 52.535156 259.785156 C 52.628906 259.914062 52.695312 260.070312 52.71875 260.230469 C 52.742188 260.410156 52.730469 260.503906 52.730469 260.628906 C 52.726562 260.867188 52.714844 261.105469 52.695312 261.347656 C 52.675781 261.585938 52.652344 261.824219 52.613281 262.0625 C 52.582031 262.304688 52.785156 265.976562 52.824219 267.574219 C 52.839844 268.375 52.816406 269.171875 52.792969 269.972656 C 52.78125 270.371094 52.773438 270.769531 52.75 271.171875 C 52.730469 271.570312 52.695312 271.96875 52.667969 272.371094 C 52.65625 272.570312 52.640625 272.769531 52.628906 272.96875 L 52.625 273.042969 L 52.617188 273.132812 C 52.609375 273.1875 52.597656 273.246094 52.582031 273.300781 C 52.546875 273.410156 52.492188 273.511719 52.425781 273.605469 C 52.285156 273.78125 52.09375 273.917969 51.871094 273.96875 C 51.816406 273.984375 51.761719 273.988281 51.707031 273.992188 C 51.652344 274 51.59375 274 51.539062 273.996094 C 51.425781 273.984375 51.316406 273.957031 51.214844 273.90625 C 51.007812 273.816406 50.832031 273.652344 50.726562 273.441406 C 50.675781 273.339844 50.640625 273.222656 50.625 273.105469 L 50.597656 272.796875 C 50.558594 272.398438 50.519531 272 50.496094 271.597656 C 50.46875 271.199219 50.464844 270.800781 50.46875 270.402344 C 50.472656 270 50.484375 269.601562 50.503906 269.203125 C 50.542969 268.402344 50.414062 264.894531 50.378906 263.9375 C 50.363281 263.457031 50.390625 262.980469 50.414062 262.5 C 50.425781 262.261719 50.4375 262.023438 50.457031 261.785156 C 50.476562 261.546875 50.515625 261.304688 50.542969 261.066406 C 50.570312 260.824219 50.597656 260.59375 50.609375 260.34375 C 50.640625 260.074219 50.769531 259.820312 50.972656 259.640625 C 51.175781 259.464844 51.453125 259.355469 51.746094 259.367188 C 52.042969 259.375 52.347656 259.527344 52.535156 259.785156 Z M 64.8125 267.574219 C 64.824219 268.375 64.800781 269.171875 64.78125 269.972656 C 64.769531 270.371094 64.757812 270.769531 64.738281 271.171875 C 64.71875 271.570312 64.683594 271.96875 64.65625 272.371094 C 64.644531 272.570312 64.628906 272.769531 64.617188 272.96875 L 64.613281 273.042969 L 64.605469 273.132812 C 64.597656 273.1875 64.585938 273.246094 64.566406 273.300781 C 64.535156 273.410156 64.480469 273.511719 64.414062 273.605469 C 64.273438 273.78125 64.078125 273.917969 63.859375 273.96875 C 63.804688 273.984375 63.75 273.988281 63.695312 273.992188 C 63.636719 274 63.582031 274 63.527344 273.996094 C 63.414062 273.984375 63.304688 273.957031 63.203125 273.90625 C 62.996094 273.816406 62.820312 273.652344 62.714844 273.441406 C 62.664062 273.339844 62.628906 273.222656 62.613281 273.105469 L 62.585938 272.796875 C 62.546875 272.398438 62.507812 272 62.480469 271.597656 C 62.457031 271.199219 62.449219 270.800781 62.457031 270.402344 C 62.460938 270 62.472656 269.601562 62.492188 269.203125 C 62.53125 268.402344 62.5 267.375 62.527344 267.136719 C 62.558594 266.894531 62.585938 266.664062 62.597656 266.414062 C 62.625 266.144531 62.757812 265.890625 62.960938 265.714844 C 63.164062 265.535156 63.4375 265.425781 63.734375 265.4375 C 64.03125 265.445312 64.335938 265.597656 64.523438 265.859375 C 64.617188 265.988281 64.683594 266.140625 64.707031 266.300781 C 64.730469 266.480469 64.792969 266.832031 64.8125 267.574219 Z M 76.511719 259.785156 C 76.605469 259.914062 76.667969 260.070312 76.695312 260.230469 C 76.71875 260.410156 76.707031 260.503906 76.707031 260.628906 C 76.703125 260.867188 76.691406 261.105469 76.671875 261.347656 C 76.652344 261.585938 76.628906 261.824219 76.589844 262.0625 C 76.554688 262.304688 76.757812 265.976562 76.800781 267.574219 C 76.8125 268.375 76.789062 269.171875 76.769531 269.972656 C 76.757812 270.371094 76.746094 270.769531 76.726562 271.171875 C 76.707031 271.570312 76.671875 271.96875 76.644531 272.371094 C 76.632812 272.570312 76.617188 272.769531 76.605469 272.96875 L 76.601562 273.042969 L 76.59375 273.132812 C 76.585938 273.1875 76.574219 273.246094 76.554688 273.300781 C 76.523438 273.410156 76.46875 273.511719 76.402344 273.605469 C 76.261719 273.78125 76.066406 273.917969 75.847656 273.96875 C 75.792969 273.984375 75.738281 273.988281 75.683594 273.992188 C 75.625 274 75.570312 274 75.515625 273.996094 C 75.402344 273.984375 75.292969 273.957031 75.191406 273.90625 C 74.984375 273.816406 74.808594 273.652344 74.703125 273.441406 C 74.648438 273.339844 74.617188 273.222656 74.601562 273.105469 L 74.570312 272.796875 C 74.535156 272.398438 74.496094 272 74.46875 271.597656 C 74.445312 271.199219 74.4375 270.800781 74.445312 270.402344 C 74.449219 270 74.460938 269.601562 74.480469 269.203125 C 74.515625 268.402344 74.390625 264.894531 74.355469 263.9375 C 74.339844 263.457031 74.367188 262.980469 74.390625 262.5 C 74.402344 262.261719 74.410156 262.023438 74.433594 261.785156 C 74.453125 261.546875 74.488281 261.304688 74.515625 261.066406 C 74.546875 260.824219 74.570312 260.59375 74.585938 260.34375 C 74.613281 260.074219 74.742188 259.820312 74.949219 259.640625 C 75.152344 259.464844 75.425781 259.355469 75.722656 259.367188 C 76.015625 259.375 76.320312 259.527344 76.511719 259.785156 Z M 88.789062 267.574219 C 88.800781 268.375 88.777344 269.171875 88.757812 269.972656 C 88.746094 270.371094 88.734375 270.769531 88.714844 271.171875 C 88.695312 271.570312 88.660156 271.96875 88.632812 272.371094 C 88.621094 272.570312 88.605469 272.769531 88.59375 272.96875 L 88.589844 273.042969 L 88.582031 273.132812 C 88.574219 273.1875 88.558594 273.246094 88.542969 273.300781 C 88.511719 273.410156 88.457031 273.511719 88.390625 273.605469 C 88.25 273.78125 88.054688 273.917969 87.835938 273.96875 C 87.78125 273.984375 87.726562 273.988281 87.671875 273.992188 C 87.613281 274 87.558594 274 87.503906 273.996094 C 87.390625 273.984375 87.28125 273.957031 87.179688 273.90625 C 86.972656 273.816406 86.796875 273.652344 86.691406 273.441406 C 86.636719 273.339844 86.601562 273.222656 86.589844 273.105469 L 86.558594 272.796875 C 86.523438 272.398438 86.484375 272 86.457031 271.597656 C 86.433594 271.199219 86.355469 269.050781 86.375 268.574219 C 86.386719 268.332031 86.398438 268.09375 86.421875 267.855469 C 86.441406 267.617188 86.476562 267.375 86.503906 267.136719 C 86.535156 266.894531 86.558594 266.664062 86.574219 266.414062 C 86.601562 266.144531 86.730469 265.890625 86.9375 265.714844 C 87.140625 265.535156 87.414062 265.425781 87.710938 265.4375 C 88.003906 265.445312 88.308594 265.597656 88.5 265.859375 C 88.59375 265.988281 88.65625 266.140625 88.683594 266.300781 C 88.707031 266.480469 88.769531 266.832031 88.789062 267.574219 Z M 100.488281 259.785156 C 100.582031 259.914062 100.644531 260.070312 100.671875 260.230469 C 100.695312 260.410156 100.679688 260.503906 100.679688 260.628906 C 100.675781 260.867188 100.664062 261.105469 100.648438 261.347656 C 100.628906 261.585938 100.605469 261.824219 100.566406 262.0625 C 100.53125 262.304688 100.734375 265.976562 100.777344 267.574219 C 100.789062 268.375 100.765625 269.171875 100.746094 269.972656 C 100.734375 270.371094 100.722656 270.769531 100.703125 271.171875 C 100.683594 271.570312 100.648438 271.96875 100.621094 272.371094 C 100.609375 272.570312 100.59375 272.769531 100.582031 272.96875 L 100.578125 273.042969 L 100.570312 273.132812 C 100.5625 273.1875 100.546875 273.246094 100.53125 273.300781 C 100.5 273.410156 100.445312 273.511719 100.378906 273.605469 C 100.238281 273.78125 100.042969 273.917969 99.824219 273.96875 C 99.769531 273.984375 99.714844 273.988281 99.65625 273.992188 C 99.601562 274 99.546875 274 99.492188 273.996094 C 99.378906 273.984375 99.269531 273.957031 99.164062 273.90625 C 98.960938 273.816406 98.785156 273.652344 98.679688 273.441406 C 98.625 273.339844 98.589844 273.222656 98.578125 273.105469 L 98.546875 272.796875 C 98.507812 272.398438 98.472656 272 98.445312 271.597656 C 98.421875 271.199219 98.414062 270.800781 98.421875 270.402344 C 98.421875 270 98.4375 269.601562 98.453125 269.203125 C 98.492188 268.402344 98.367188 264.894531 98.328125 263.9375 C 98.316406 263.457031 98.34375 262.980469 98.363281 262.5 C 98.375 262.261719 98.386719 262.023438 98.410156 261.785156 C 98.429688 261.546875 98.464844 261.304688 98.492188 261.066406 C 98.523438 260.824219 98.546875 260.59375 98.5625 260.34375 C 98.589844 260.074219 98.71875 259.820312 98.925781 259.640625 C 99.125 259.464844 99.402344 259.355469 99.699219 259.367188 C 99.992188 259.375 100.296875 259.527344 100.488281 259.785156 Z M 110.667969 273.441406 C 110.613281 273.339844 110.578125 273.222656 110.566406 273.105469 L 110.535156 272.796875 C 110.496094 272.398438 110.460938 272 110.433594 271.601562 C 110.410156 271.199219 110.328125 269.050781 110.351562 268.574219 C 110.363281 268.332031 110.375 268.09375 110.398438 267.855469 C 110.417969 267.617188 110.453125 267.375 110.480469 267.136719 C 110.507812 266.894531 110.535156 266.664062 110.550781 266.414062 C 110.578125 266.144531 110.707031 265.890625 110.910156 265.714844 C 111.113281 265.535156 111.390625 265.425781 111.6875 265.4375 C 111.980469 265.445312 112.285156 265.597656 112.472656 265.859375 C 112.570312 265.988281 112.632812 266.140625 112.65625 266.300781 C 112.679688 266.480469 112.746094 266.832031 112.761719 267.574219 C 112.777344 268.375 112.753906 269.171875 112.734375 269.972656 C 112.722656 270.371094 112.710938 270.769531 112.691406 271.171875 C 112.671875 271.570312 112.636719 271.96875 112.609375 272.371094 C 112.597656 272.570312 112.578125 272.769531 112.570312 272.96875 L 112.566406 273.042969 L 112.558594 273.132812 C 112.550781 273.1875 112.535156 273.246094 112.519531 273.300781 C 112.484375 273.410156 112.433594 273.511719 112.363281 273.605469 C 112.226562 273.78125 112.03125 273.917969 111.8125 273.96875 C 111.757812 273.984375 111.703125 273.988281 111.644531 273.992188 C 111.589844 274 111.535156 274 111.476562 273.996094 C 111.367188 273.984375 111.257812 273.957031 111.152344 273.90625 C 110.945312 273.816406 110.769531 273.652344 110.667969 273.441406 Z M 122.65625 273.441406 C 122.601562 273.339844 122.566406 273.222656 122.550781 273.105469 L 122.523438 272.796875 C 122.484375 272.398438 122.445312 272 122.421875 271.601562 C 122.398438 271.199219 122.390625 270.800781 122.398438 270.402344 C 122.398438 270 122.414062 269.601562 122.429688 269.203125 C 122.46875 268.402344 122.34375 264.894531 122.304688 263.9375 C 122.292969 263.457031 122.316406 262.980469 122.339844 262.503906 C 122.351562 262.261719 122.363281 262.023438 122.386719 261.785156 C 122.40625 261.546875 122.441406 261.304688 122.46875 261.066406 C 122.496094 260.824219 122.523438 260.59375 122.539062 260.34375 C 122.566406 260.074219 122.695312 259.820312 122.898438 259.644531 C 123.101562 259.464844 123.378906 259.355469 123.671875 259.367188 C 123.96875 259.375 124.273438 259.527344 124.460938 259.789062 C 124.558594 259.914062 124.621094 260.070312 124.644531 260.230469 C 124.667969 260.410156 124.65625 260.503906 124.65625 260.628906 C 124.652344 260.867188 124.640625 261.105469 124.621094 261.347656 C 124.605469 261.585938 124.582031 261.824219 124.542969 262.066406 C 124.507812 262.304688 124.710938 265.976562 124.75 267.574219 C 124.765625 268.375 124.742188 269.171875 124.722656 269.972656 C 124.710938 270.371094 124.699219 270.773438 124.679688 271.171875 C 124.660156 271.570312 124.625 271.972656 124.597656 272.371094 C 124.585938 272.570312 124.566406 272.769531 124.558594 272.96875 L 124.554688 273.046875 L 124.546875 273.132812 C 124.539062 273.1875 124.523438 273.246094 124.507812 273.300781 C 124.472656 273.410156 124.421875 273.515625 124.351562 273.605469 C 124.214844 273.785156 124.019531 273.917969 123.800781 273.96875 C 123.746094 273.984375 123.691406 273.988281 123.632812 273.992188 C 123.578125 274 123.523438 274 123.464844 273.996094 C 123.355469 273.984375 123.246094 273.957031 123.140625 273.910156 C 122.933594 273.816406 122.757812 273.652344 122.65625 273.441406 Z M 122.65625 273.441406 " fill-opacity="1" fill-rule="nonzero"/><g fill="#0f0e0c" fill-opacity="1"><g transform="translate(158.338947, 273.997043)"><g><path d="M 43.984375 1.4375 C 34.984375 1.4375 27.726562 0.472656 22.21875 -1.453125 C 16.71875 -3.390625 12.53125 -6.050781 9.65625 -9.4375 C 6.78125 -12.832031 4.84375 -16.738281 3.84375 -21.15625 L 33.5 -21.15625 C 35.695312 -18 39.191406 -16.421875 43.984375 -16.421875 C 48.785156 -16.421875 52.28125 -18 54.46875 -21.15625 C 54.65625 -21.46875 54.75 -21.75 54.75 -22 C 54.75 -22.832031 53.644531 -23.457031 51.4375 -23.875 C 49.226562 -24.289062 45.925781 -24.609375 41.53125 -24.828125 C 35.988281 -25.078125 30.171875 -25.664062 24.078125 -26.59375 C 10.503906 -28.695312 3.71875 -34.15625 3.71875 -42.96875 C 3.71875 -43.707031 3.757812 -44.492188 3.84375 -45.328125 C 4.84375 -49.753906 6.78125 -53.660156 9.65625 -57.046875 C 12.53125 -60.429688 16.71875 -63.09375 22.21875 -65.03125 C 27.726562 -66.96875 34.984375 -67.9375 43.984375 -67.9375 C 52.984375 -67.9375 60.238281 -66.96875 65.75 -65.03125 C 71.257812 -63.09375 75.453125 -60.429688 78.328125 -57.046875 C 81.203125 -53.660156 83.132812 -49.753906 84.125 -45.328125 L 54.46875 -45.328125 C 52.28125 -48.484375 48.785156 -50.0625 43.984375 -50.0625 C 39.191406 -50.0625 35.695312 -48.484375 33.5 -45.328125 C 33.34375 -45.085938 33.265625 -44.859375 33.265625 -44.640625 C 33.265625 -43.898438 34.320312 -43.347656 36.4375 -42.984375 C 38.5625 -42.628906 41.6875 -42.328125 45.8125 -42.078125 C 49.945312 -41.835938 54.347656 -41.4375 59.015625 -40.875 C 63.691406 -40.320312 68.0625 -39.359375 72.125 -37.984375 C 76.195312 -36.609375 79.378906 -34.570312 81.671875 -31.875 C 83.460938 -29.800781 84.359375 -27.171875 84.359375 -23.984375 C 84.359375 -23.085938 84.28125 -22.144531 84.125 -21.15625 C 83.132812 -16.738281 81.203125 -12.832031 78.328125 -9.4375 C 75.453125 -6.050781 71.257812 -3.390625 65.75 -1.453125 C 60.238281 0.472656 52.984375 1.4375 43.984375 1.4375 Z M 43.984375 1.4375 "/></g></g></g><g fill="#0f0e0c" fill-opacity="1"><g transform="translate(246.395414, 273.997043)"><g><path d="M 35.359375 0 L 7.421875 0 L 7.421875 -66.59375 L 35.359375 -66.59375 Z M 35.359375 0 "/></g></g></g><g fill="#0f0e0c" fill-opacity="1"><g transform="translate(289.171001, 273.997043)"><g><path d="M 81.109375 0 L 4.171875 0 L 4.171875 -16.421875 L 48.21875 -50.109375 L 4.171875 -50.109375 L 4.171875 -66.546875 L 81.109375 -66.546875 L 81.109375 -50.109375 L 37.03125 -16.421875 L 81.109375 -16.421875 Z M 81.109375 0 "/></g></g></g><g fill="#0f0e0c" fill-opacity="1"><g transform="translate(374.443807, 273.997043)"><g><path d="M 87.609375 0 L 7.421875 0 L 7.421875 -66.59375 L 83.9375 -66.59375 L 83.9375 -50.109375 L 35.359375 -50.109375 L 35.359375 -39.671875 L 76.421875 -39.671875 L 76.421875 -26.859375 L 35.359375 -26.859375 L 35.359375 -16.46875 L 87.609375 -16.46875 Z M 87.609375 0 "/></g></g></g><g fill="#0f0e0c" fill-opacity="1"><g transform="translate(465.747879, 273.997043)"><g><path d="M 98.328125 0 L 71.921875 0 C 70.710938 -1.664062 69.863281 -3.800781 69.375 -6.40625 C 68.9375 -8.414062 68.285156 -10.382812 67.421875 -12.3125 C 66.554688 -14.25 65.0625 -15.859375 62.9375 -17.140625 C 60.820312 -18.429688 57.675781 -19.117188 53.5 -19.203125 L 35.359375 -19.203125 L 35.359375 0 L 7.421875 0 L 7.421875 -66.59375 L 52.859375 -66.59375 C 63.710938 -66.59375 72.472656 -65.78125 79.140625 -64.15625 C 85.804688 -62.53125 90.671875 -59.976562 93.734375 -56.5 C 96.796875 -53.019531 98.328125 -48.476562 98.328125 -42.875 C 98.328125 -38.207031 97.265625 -34.28125 95.140625 -31.09375 C 93.023438 -27.90625 89.675781 -25.382812 85.09375 -23.53125 C 89.519531 -21.695312 92.390625 -19.503906 93.703125 -16.953125 C 95.023438 -14.398438 95.835938 -11.59375 96.140625 -8.53125 C 96.453125 -5.8125 97.179688 -2.96875 98.328125 0 Z M 35.359375 -35.640625 L 51.328125 -35.6875 C 55.773438 -35.6875 59.28125 -35.882812 61.84375 -36.28125 C 64.414062 -36.6875 66.3125 -37.238281 67.53125 -37.9375 C 68.757812 -38.632812 69.539062 -39.40625 69.875 -40.25 C 70.21875 -41.101562 70.390625 -41.976562 70.390625 -42.875 C 70.390625 -43.769531 70.21875 -44.648438 69.875 -45.515625 C 69.539062 -46.378906 68.757812 -47.160156 67.53125 -47.859375 C 66.3125 -48.554688 64.414062 -49.101562 61.84375 -49.5 C 59.28125 -49.90625 55.773438 -50.109375 51.328125 -50.109375 L 35.359375 -50.109375 Z M 35.359375 -35.640625 "/></g></g></g><g fill="#0f0e0c" fill-opacity="1"><g transform="translate(567.769066, 273.997043)"><g><path d="M 98.328125 0 L 71.921875 0 C 70.710938 -1.664062 69.863281 -3.800781 69.375 -6.40625 C 68.9375 -8.414062 68.285156 -10.382812 67.421875 -12.3125 C 66.554688 -14.25 65.0625 -15.859375 62.9375 -17.140625 C 60.820312 -18.429688 57.675781 -19.117188 53.5 -19.203125 L 35.359375 -19.203125 L 35.359375 0 L 7.421875 0 L 7.421875 -66.59375 L 52.859375 -66.59375 C 63.710938 -66.59375 72.472656 -65.78125 79.140625 -64.15625 C 85.804688 -62.53125 90.671875 -59.976562 93.734375 -56.5 C 96.796875 -53.019531 98.328125 -48.476562 98.328125 -42.875 C 98.328125 -38.207031 97.265625 -34.28125 95.140625 -31.09375 C 93.023438 -27.90625 89.675781 -25.382812 85.09375 -23.53125 C 89.519531 -21.695312 92.390625 -19.503906 93.703125 -16.953125 C 95.023438 -14.398438 95.835938 -11.59375 96.140625 -8.53125 C 96.453125 -5.8125 97.179688 -2.96875 98.328125 0 Z M 35.359375 -35.640625 L 51.328125 -35.6875 C 55.773438 -35.6875 59.28125 -35.882812 61.84375 -36.28125 C 64.414062 -36.6875 66.3125 -37.238281 67.53125 -37.9375 C 68.757812 -38.632812 69.539062 -39.40625 69.875 -40.25 C 70.21875 -41.101562 70.390625 -41.976562 70.390625 -42.875 C 70.390625 -43.769531 70.21875 -44.648438 69.875 -45.515625 C 69.539062 -46.378906 68.757812 -47.160156 67.53125 -47.859375 C 66.3125 -48.554688 64.414062 -49.101562 61.84375 -49.5 C 59.28125 -49.90625 55.773438 -50.109375 51.328125 -50.109375 L 35.359375 -50.109375 Z M 35.359375 -35.640625 "/></g></g></g></svg>