<svg xmlns="http://www.w3.org/2000/svg" xmlns:xlink="http://www.w3.org/1999/xlink" width="500" zoomAndPan="magnify" viewBox="0 0 375 374.999991" height="500" preserveAspectRatio="xMidYMid meet" version="1.0"><defs><clipPath id="0476cbcfeb"><path d="M 67.222656 10 L 307.773438 10 L 307.773438 365.195312 L 67.222656 365.195312 Z M 67.222656 10 " clip-rule="nonzero"/></clipPath></defs><g clip-path="url(#0476cbcfeb)"><path fill="#475be8" d="M 302.773438 12.476562 C 304.105469 13.523438 305.148438 14.953125 305.753906 16.546875 C 306.046875 17.347656 306.257812 18.179688 306.339844 19.023438 C 306.386719 19.4375 306.398438 19.882812 306.414062 20.277344 L 306.429688 21.453125 L 306.722656 40.28125 L 307.273438 77.9375 C 307.394531 90.492188 307.4375 103.042969 307.378906 115.59375 L 307.308594 134.425781 L 307.160156 153.253906 L 306.953125 172.082031 C 306.882812 178.355469 306.785156 184.632812 306.671875 190.910156 C 306.585938 197.1875 306.429688 203.460938 306.289062 209.738281 C 306.152344 216.015625 306.886719 262.492188 307.183594 279.453125 C 307.507812 296.414062 307.644531 313.375 307.742188 330.335938 L 307.742188 343.058594 L 307.734375 349.417969 L 307.71875 352.597656 L 307.714844 353.390625 L 307.710938 353.789062 L 307.707031 353.988281 L 307.695312 354.230469 C 307.675781 354.558594 307.664062 354.882812 307.632812 355.203125 L 307.480469 356.167969 C 306.957031 358.726562 305.519531 361.066406 303.496094 362.683594 C 301.492188 364.320312 298.84375 365.171875 296.324219 365.136719 L 283.59375 365.035156 C 275.109375 364.972656 266.625 364.898438 258.140625 364.761719 C 249.65625 364.636719 241.167969 364.417969 232.683594 364.25 L 213.59375 363.898438 L 207.226562 363.835938 C 198.742188 363.746094 190.257812 363.746094 181.773438 363.804688 L 169.042969 363.976562 L 156.316406 364.269531 C 147.832031 364.460938 139.347656 364.691406 130.863281 364.820312 C 122.375 364.9375 113.890625 364.980469 105.40625 364.925781 L 92.679688 364.855469 L 79.949219 364.707031 L 78.359375 364.6875 L 77.5625 364.675781 C 77.285156 364.667969 76.957031 364.636719 76.65625 364.613281 C 75.429688 364.550781 74.226562 364.167969 73.097656 363.6875 L 72.285156 363.242188 L 71.882812 363.015625 L 71.511719 362.746094 L 70.773438 362.191406 L 70.113281 361.554688 L 69.785156 361.234375 L 69.5 360.878906 L 68.933594 360.164062 L 68.457031 359.382812 L 68.226562 358.992188 L 68.039062 358.578125 L 67.675781 357.746094 L 67.414062 356.875 L 67.289062 356.441406 L 67.214844 355.992188 L 67.074219 355.097656 L 67.046875 354.1875 L 67.035156 353.734375 L 67.082031 353.285156 L 67.183594 352.382812 C 67.242188 352.089844 67.324219 351.796875 67.398438 351.503906 C 67.515625 350.910156 67.796875 350.371094 68.015625 349.816406 C 68.269531 349.28125 68.605469 348.769531 68.898438 348.277344 L 70.710938 345.660156 C 75.535156 338.683594 138.980469 236.3125 166.386719 197.816406 L 176.710938 182.070312 C 179.667969 175.3125 183.597656 171.570312 187.078125 166.347656 L 207.902344 134.964844 C 214.84375 124.5 221.789062 114.042969 228.789062 103.621094 C 235.777344 93.191406 242.84375 82.8125 249.871094 72.40625 L 260.394531 56.785156 L 265.652344 48.976562 L 270.871094 41.136719 C 274.363281 35.921875 277.796875 30.667969 281.257812 25.429688 L 286.414062 17.550781 L 287.699219 15.578125 C 287.917969 15.246094 288.113281 14.925781 288.351562 14.585938 C 288.589844 14.246094 288.832031 13.90625 289.113281 13.59375 C 290.191406 12.316406 291.636719 11.332031 293.230469 10.78125 C 296.429688 9.691406 300.132812 10.34375 302.773438 12.476562 Z M 239.433594 201.195312 C 237.164062 204.605469 235.078125 207.332031 233.554688 209.324219 C 233.46875 209.429688 233.382812 209.546875 233.292969 209.664062 L 232.222656 212.109375 L 218.332031 233.285156 L 217.636719 234.261719 C 206.980469 249.234375 190.042969 275.238281 173.527344 301.039062 L 181.132812 300.9375 L 181.351562 300.9375 C 190.816406 300.871094 199.492188 300.882812 207.871094 300.96875 L 214.726562 301.042969 L 233.933594 301.394531 C 236.890625 301.453125 239.847656 301.515625 242.808594 301.582031 C 243.410156 301.59375 244.007812 301.605469 244.605469 301.621094 C 244.527344 294.703125 244.425781 287.644531 244.292969 280.644531 L 244.289062 280.546875 C 244.097656 269.398438 243.367188 225.101562 243.367188 212.113281 C 243.367188 210.53125 243.378906 209.375 243.402344 208.367188 L 243.484375 204.6875 C 243.5625 201.285156 243.636719 198.007812 243.699219 194.773438 Z M 239.433594 201.195312 " fill-opacity="1" fill-rule="nonzero"/></g><path fill="#ffffff" d="M 272.128906 241.066406 C 272.105469 241.574219 272.296875 242.046875 272.601562 242.394531 C 272.90625 242.746094 273.339844 242.96875 273.804688 243.015625 C 274.238281 243.039062 274.632812 243.085938 275.050781 243.132812 C 275.460938 243.183594 275.871094 243.242188 276.28125 243.277344 C 276.695312 243.316406 277.105469 243.335938 277.515625 243.355469 C 278.335938 243.394531 279.160156 243.4375 279.980469 243.414062 C 281.625 243.351562 287.65625 243.132812 289.027344 243.199219 C 289.714844 243.230469 290.402344 243.253906 291.089844 243.257812 C 291.777344 243.269531 292.460938 243.257812 293.148438 243.214844 C 293.835938 243.171875 294.519531 243.105469 295.207031 243.039062 L 295.734375 242.988281 C 295.9375 242.964844 296.136719 242.90625 296.3125 242.8125 C 296.671875 242.636719 296.957031 242.332031 297.113281 241.980469 C 297.195312 241.804688 297.246094 241.613281 297.265625 241.421875 C 297.269531 241.328125 297.273438 241.230469 297.261719 241.136719 C 297.253906 241.039062 297.246094 240.945312 297.222656 240.851562 C 297.132812 240.472656 296.898438 240.140625 296.59375 239.902344 C 296.4375 239.785156 296.257812 239.695312 296.070312 239.636719 C 295.976562 239.609375 295.878906 239.585938 295.78125 239.570312 L 295.632812 239.558594 L 295.503906 239.550781 C 295.160156 239.535156 294.816406 239.503906 294.472656 239.484375 C 293.785156 239.4375 293.097656 239.375 292.414062 239.34375 C 291.726562 239.308594 291.039062 239.289062 290.351562 239.269531 C 288.980469 239.234375 287.605469 239.195312 286.234375 239.21875 C 283.488281 239.289062 277.175781 239.636719 276.761719 239.578125 C 276.351562 239.511719 275.941406 239.472656 275.53125 239.4375 C 275.117188 239.40625 274.707031 239.386719 274.296875 239.378906 C 274.082031 239.378906 273.921875 239.359375 273.613281 239.398438 C 273.335938 239.441406 273.070312 239.550781 272.851562 239.714844 C 272.402344 240.035156 272.144531 240.558594 272.128906 241.066406 Z M 290.351562 218.703125 C 291.039062 218.722656 291.726562 218.738281 292.414062 218.777344 C 293.097656 218.808594 293.785156 218.871094 294.472656 218.914062 C 294.816406 218.9375 295.160156 218.964844 295.503906 218.980469 L 295.632812 218.988281 L 295.78125 219.003906 C 295.878906 219.019531 295.976562 219.039062 296.070312 219.070312 C 296.257812 219.125 296.4375 219.21875 296.59375 219.335938 C 296.898438 219.574219 297.132812 219.90625 297.222656 220.28125 C 297.246094 220.375 297.253906 220.472656 297.261719 220.566406 C 297.273438 220.664062 297.269531 220.757812 297.265625 220.855469 C 297.246094 221.046875 297.195312 221.234375 297.113281 221.414062 C 296.957031 221.765625 296.671875 222.070312 296.3125 222.246094 C 296.136719 222.339844 295.9375 222.398438 295.734375 222.421875 L 295.207031 222.472656 C 294.519531 222.539062 293.835938 222.601562 293.148438 222.648438 C 292.460938 222.6875 288.769531 222.828125 287.945312 222.785156 C 287.535156 222.765625 287.125 222.746094 286.714844 222.710938 C 286.304688 222.675781 285.890625 222.613281 285.480469 222.566406 C 285.066406 222.515625 284.667969 222.472656 284.238281 222.449219 C 283.773438 222.398438 283.339844 222.175781 283.035156 221.828125 C 282.730469 221.480469 282.539062 221.007812 282.558594 220.5 C 282.574219 219.992188 282.835938 219.46875 283.28125 219.144531 C 283.503906 218.984375 283.769531 218.875 284.042969 218.832031 C 284.355469 218.792969 288.980469 218.667969 290.351562 218.703125 Z M 272.851562 198.578125 C 273.070312 198.417969 273.335938 198.308594 273.613281 198.265625 C 273.921875 198.222656 274.082031 198.246094 274.296875 198.246094 C 274.707031 198.253906 275.117188 198.273438 275.53125 198.304688 C 275.941406 198.335938 276.351562 198.378906 276.761719 198.441406 C 277.175781 198.503906 283.488281 198.152344 286.234375 198.085938 C 287.605469 198.058594 288.980469 198.101562 290.351562 198.136719 C 291.039062 198.15625 291.726562 198.171875 292.414062 198.210938 C 293.097656 198.242188 293.785156 198.300781 294.472656 198.347656 C 294.816406 198.371094 295.160156 198.398438 295.503906 198.414062 L 295.632812 198.421875 L 295.78125 198.4375 C 295.878906 198.449219 295.976562 198.472656 296.070312 198.503906 C 296.257812 198.558594 296.4375 198.648438 296.59375 198.769531 C 296.898438 199.003906 297.132812 199.339844 297.222656 199.714844 C 297.246094 199.808594 297.253906 199.90625 297.261719 200 C 297.273438 200.097656 297.269531 200.191406 297.265625 200.289062 C 297.246094 200.480469 297.195312 200.667969 297.113281 200.84375 C 296.957031 201.199219 296.671875 201.5 296.3125 201.679688 C 296.136719 201.769531 295.9375 201.832031 295.734375 201.855469 L 295.207031 201.90625 C 294.519531 201.972656 293.835938 202.035156 293.148438 202.082031 C 292.460938 202.121094 291.773438 202.132812 291.089844 202.121094 C 290.402344 202.121094 289.714844 202.09375 289.027344 202.066406 C 287.65625 202 281.625 202.214844 279.980469 202.28125 C 279.160156 202.300781 278.335938 202.257812 277.515625 202.21875 C 277.105469 202.199219 276.695312 202.179688 276.28125 202.144531 C 275.871094 202.109375 275.460938 202.046875 275.050781 202 C 274.632812 201.949219 274.238281 201.90625 273.804688 201.878906 C 273.339844 201.832031 272.90625 201.609375 272.601562 201.257812 C 272.296875 200.914062 272.105469 200.4375 272.128906 199.933594 C 272.144531 199.425781 272.402344 198.902344 272.851562 198.578125 Z M 286.234375 177.519531 C 287.605469 177.492188 288.980469 177.535156 290.351562 177.570312 C 291.039062 177.589844 291.726562 177.605469 292.414062 177.644531 C 293.097656 177.675781 293.785156 177.734375 294.472656 177.78125 C 294.816406 177.804688 295.160156 177.832031 295.503906 177.847656 L 295.632812 177.855469 L 295.78125 177.871094 C 295.878906 177.882812 295.976562 177.90625 296.070312 177.9375 C 296.257812 177.992188 296.4375 178.082031 296.59375 178.203125 C 296.898438 178.4375 297.132812 178.773438 297.222656 179.148438 C 297.246094 179.242188 297.253906 179.339844 297.261719 179.433594 C 297.273438 179.53125 297.269531 179.625 297.265625 179.722656 C 297.246094 179.914062 297.195312 180.101562 297.113281 180.277344 C 296.957031 180.632812 296.671875 180.933594 296.3125 181.113281 C 296.136719 181.203125 295.9375 181.265625 295.734375 181.289062 L 295.207031 181.339844 C 294.519531 181.40625 293.835938 181.46875 293.148438 181.515625 C 292.460938 181.554688 291.773438 181.566406 291.089844 181.554688 C 290.402344 181.554688 289.714844 181.527344 289.027344 181.5 C 287.65625 181.433594 285.894531 181.480469 285.480469 181.433594 C 285.066406 181.382812 284.667969 181.339844 284.238281 181.3125 C 283.773438 181.265625 283.339844 181.042969 283.035156 180.691406 C 282.730469 180.347656 282.539062 179.871094 282.5625 179.367188 C 282.578125 178.859375 282.835938 178.335938 283.28125 178.011719 C 283.503906 177.851562 283.769531 177.738281 284.046875 177.695312 C 284.355469 177.65625 284.957031 177.550781 286.234375 177.519531 Z M 272.851562 157.445312 C 273.070312 157.285156 273.335938 157.171875 273.613281 157.128906 C 273.921875 157.089844 274.082031 157.113281 274.296875 157.113281 C 274.707031 157.117188 275.117188 157.140625 275.53125 157.171875 C 275.941406 157.203125 276.351562 157.242188 276.761719 157.308594 C 277.175781 157.367188 283.488281 157.019531 286.234375 156.949219 C 287.605469 156.925781 288.980469 156.964844 290.351562 157.003906 C 291.039062 157.023438 291.726562 157.039062 292.414062 157.078125 C 293.097656 157.109375 293.785156 157.167969 294.472656 157.214844 C 294.816406 157.238281 295.160156 157.265625 295.503906 157.28125 L 295.632812 157.289062 L 295.78125 157.304688 C 295.878906 157.316406 295.976562 157.339844 296.070312 157.371094 C 296.257812 157.425781 296.4375 157.515625 296.59375 157.636719 C 296.898438 157.871094 297.132812 158.207031 297.222656 158.582031 C 297.246094 158.675781 297.253906 158.773438 297.261719 158.867188 C 297.273438 158.964844 297.269531 159.058594 297.265625 159.15625 C 297.246094 159.347656 297.195312 159.535156 297.113281 159.710938 C 296.957031 160.066406 296.671875 160.367188 296.3125 160.546875 C 296.136719 160.636719 295.9375 160.699219 295.734375 160.722656 L 295.207031 160.773438 C 294.519531 160.839844 293.835938 160.902344 293.148438 160.949219 C 292.460938 160.988281 291.773438 161 291.089844 160.988281 C 290.402344 160.988281 289.714844 160.960938 289.027344 160.933594 C 287.65625 160.867188 281.625 161.082031 279.980469 161.148438 C 279.160156 161.167969 278.335938 161.125 277.515625 161.085938 C 277.105469 161.066406 276.695312 161.046875 276.28125 161.011719 C 275.871094 160.976562 275.460938 160.914062 275.050781 160.867188 C 274.632812 160.816406 274.238281 160.773438 273.804688 160.746094 C 273.339844 160.699219 272.90625 160.476562 272.601562 160.125 C 272.296875 159.78125 272.105469 159.304688 272.128906 158.800781 C 272.144531 158.292969 272.402344 157.769531 272.851562 157.445312 Z M 286.234375 136.382812 C 287.605469 136.359375 288.980469 136.398438 290.351562 136.4375 C 291.039062 136.453125 291.726562 136.472656 292.414062 136.507812 C 293.097656 136.542969 293.785156 136.601562 294.472656 136.648438 C 294.816406 136.671875 295.160156 136.699219 295.503906 136.714844 L 295.632812 136.722656 L 295.78125 136.738281 C 295.878906 136.75 295.976562 136.773438 296.070312 136.800781 C 296.257812 136.859375 296.4375 136.949219 296.59375 137.066406 C 296.898438 137.304688 297.132812 137.640625 297.222656 138.015625 C 297.246094 138.109375 297.253906 138.207031 297.261719 138.300781 C 297.273438 138.398438 297.269531 138.492188 297.265625 138.589844 C 297.246094 138.78125 297.195312 138.96875 297.113281 139.144531 C 296.957031 139.5 296.671875 139.800781 296.3125 139.980469 C 296.136719 140.070312 295.9375 140.132812 295.734375 140.15625 L 295.207031 140.207031 C 294.519531 140.269531 293.835938 140.335938 293.148438 140.378906 C 292.460938 140.421875 288.769531 140.558594 287.945312 140.519531 C 287.535156 140.5 287.125 140.480469 286.714844 140.441406 C 286.304688 140.410156 285.890625 140.347656 285.480469 140.300781 C 285.066406 140.25 284.667969 140.207031 284.238281 140.179688 C 283.773438 140.132812 283.339844 139.910156 283.035156 139.558594 C 282.730469 139.214844 282.539062 138.738281 282.558594 138.230469 C 282.574219 137.726562 282.835938 137.203125 283.28125 136.878906 C 283.503906 136.714844 283.769531 136.605469 284.042969 136.5625 C 284.355469 136.523438 284.957031 136.414062 286.234375 136.382812 Z M 272.851562 116.3125 C 273.070312 116.148438 273.335938 116.039062 273.613281 115.996094 C 273.921875 115.957031 274.082031 115.980469 274.296875 115.976562 C 274.707031 115.984375 275.117188 116.003906 275.53125 116.035156 C 275.941406 116.070312 276.351562 116.109375 276.761719 116.175781 C 277.175781 116.234375 283.488281 115.886719 286.234375 115.816406 C 287.605469 115.792969 288.980469 115.832031 290.351562 115.867188 C 291.039062 115.886719 291.726562 115.90625 292.414062 115.941406 C 293.097656 115.972656 293.785156 116.035156 294.472656 116.082031 C 294.816406 116.101562 295.160156 116.132812 295.503906 116.148438 L 295.632812 116.15625 L 295.78125 116.167969 C 295.878906 116.183594 295.976562 116.207031 296.070312 116.234375 C 296.257812 116.292969 296.4375 116.382812 296.59375 116.5 C 296.898438 116.738281 297.132812 117.070312 297.222656 117.449219 C 297.246094 117.542969 297.253906 117.636719 297.261719 117.734375 C 297.273438 117.828125 297.269531 117.925781 297.265625 118.019531 C 297.246094 118.210938 297.195312 118.402344 297.113281 118.578125 C 296.957031 118.929688 296.671875 119.234375 296.3125 119.414062 C 296.136719 119.503906 295.9375 119.5625 295.734375 119.585938 L 295.207031 119.636719 C 294.519531 119.703125 293.835938 119.769531 293.148438 119.8125 C 292.460938 119.855469 291.773438 119.867188 291.089844 119.855469 C 290.402344 119.851562 289.714844 119.828125 289.027344 119.796875 C 287.65625 119.730469 281.625 119.949219 279.980469 120.011719 C 279.160156 120.035156 278.335938 119.992188 277.515625 119.953125 C 277.105469 119.933594 276.695312 119.914062 276.28125 119.875 C 275.871094 119.839844 275.460938 119.78125 275.050781 119.734375 C 274.632812 119.683594 274.238281 119.636719 273.804688 119.613281 C 273.339844 119.566406 272.90625 119.34375 272.601562 118.992188 C 272.296875 118.644531 272.105469 118.171875 272.128906 117.664062 C 272.144531 117.160156 272.402344 116.636719 272.851562 116.3125 Z M 296.316406 98.847656 C 296.136719 98.9375 295.9375 98.996094 295.738281 99.023438 L 295.207031 99.074219 C 294.519531 99.136719 293.835938 99.203125 293.148438 99.246094 C 292.460938 99.289062 288.769531 99.425781 287.949219 99.386719 C 287.535156 99.367188 287.125 99.347656 286.714844 99.308594 C 286.304688 99.273438 285.894531 99.214844 285.480469 99.167969 C 285.066406 99.117188 284.667969 99.074219 284.238281 99.046875 C 283.773438 99 283.339844 98.777344 283.035156 98.425781 C 282.730469 98.078125 282.539062 97.605469 282.5625 97.097656 C 282.578125 96.59375 282.835938 96.070312 283.28125 95.746094 C 283.503906 95.582031 283.769531 95.472656 284.046875 95.429688 C 284.355469 95.390625 284.957031 95.28125 286.230469 95.25 C 287.605469 95.226562 288.976562 95.265625 290.351562 95.300781 C 291.039062 95.320312 291.726562 95.339844 292.410156 95.375 C 293.097656 95.40625 293.785156 95.46875 294.472656 95.515625 C 294.816406 95.535156 295.160156 95.566406 295.5 95.582031 L 295.632812 95.589844 L 295.78125 95.601562 C 295.878906 95.617188 295.976562 95.640625 296.070312 95.667969 C 296.257812 95.726562 296.4375 95.816406 296.59375 95.933594 C 296.898438 96.171875 297.132812 96.503906 297.222656 96.882812 C 297.246094 96.976562 297.253906 97.070312 297.261719 97.167969 C 297.273438 97.261719 297.269531 97.359375 297.265625 97.453125 C 297.246094 97.644531 297.195312 97.835938 297.113281 98.011719 C 296.957031 98.367188 296.675781 98.667969 296.316406 98.847656 Z M 296.316406 78.28125 C 296.136719 78.371094 295.9375 78.429688 295.738281 78.453125 L 295.207031 78.503906 C 294.519531 78.570312 293.835938 78.636719 293.148438 78.679688 C 292.460938 78.722656 291.777344 78.734375 291.089844 78.722656 C 290.402344 78.71875 289.714844 78.695312 289.03125 78.664062 C 287.65625 78.597656 281.625 78.816406 279.980469 78.878906 C 279.160156 78.902344 278.339844 78.859375 277.515625 78.820312 C 277.105469 78.800781 276.695312 78.78125 276.285156 78.742188 C 275.871094 78.707031 275.460938 78.648438 275.050781 78.601562 C 274.632812 78.550781 274.238281 78.503906 273.804688 78.480469 C 273.339844 78.433594 272.90625 78.210938 272.601562 77.859375 C 272.296875 77.511719 272.105469 77.039062 272.128906 76.53125 C 272.144531 76.027344 272.40625 75.503906 272.851562 75.179688 C 273.074219 75.015625 273.335938 74.90625 273.613281 74.863281 C 273.921875 74.824219 274.082031 74.84375 274.296875 74.84375 C 274.707031 74.851562 275.121094 74.871094 275.53125 74.902344 C 275.941406 74.933594 276.351562 74.976562 276.765625 75.042969 C 277.175781 75.101562 283.488281 74.753906 286.234375 74.683594 C 287.605469 74.660156 288.980469 74.699219 290.351562 74.734375 C 291.039062 74.753906 291.726562 74.773438 292.414062 74.808594 C 293.097656 74.839844 293.785156 74.902344 294.472656 74.949219 C 294.816406 74.96875 295.160156 75 295.503906 75.015625 L 295.632812 75.023438 L 295.78125 75.035156 C 295.878906 75.050781 295.976562 75.074219 296.070312 75.101562 C 296.261719 75.160156 296.4375 75.25 296.59375 75.367188 C 296.902344 75.605469 297.132812 75.9375 297.222656 76.316406 C 297.246094 76.410156 297.253906 76.503906 297.261719 76.601562 C 297.277344 76.695312 297.273438 76.792969 297.265625 76.886719 C 297.246094 77.078125 297.199219 77.269531 297.117188 77.445312 C 296.957031 77.800781 296.675781 78.101562 296.316406 78.28125 Z M 272.332031 319.644531 C 272.550781 319.484375 272.816406 319.375 273.09375 319.332031 C 273.402344 319.289062 273.5625 319.3125 273.777344 319.3125 C 274.1875 319.320312 274.597656 319.339844 275.011719 319.371094 C 275.421875 319.402344 275.832031 319.445312 276.242188 319.507812 C 276.65625 319.570312 282.96875 319.21875 285.714844 319.152344 C 287.085938 319.125 288.460938 319.167969 289.832031 319.203125 C 290.519531 319.222656 291.207031 319.238281 291.890625 319.277344 C 292.578125 319.308594 293.265625 319.367188 293.953125 319.414062 C 294.296875 319.4375 294.640625 319.464844 294.984375 319.480469 L 295.113281 319.488281 L 295.261719 319.503906 C 295.359375 319.519531 295.457031 319.539062 295.550781 319.570312 C 295.738281 319.625 295.917969 319.714844 296.074219 319.835938 C 296.378906 320.070312 296.613281 320.40625 296.703125 320.78125 C 296.726562 320.875 296.734375 320.972656 296.742188 321.066406 C 296.753906 321.164062 296.75 321.257812 296.746094 321.355469 C 296.726562 321.546875 296.675781 321.734375 296.59375 321.910156 C 296.4375 322.265625 296.152344 322.566406 295.792969 322.746094 C 295.617188 322.835938 295.417969 322.898438 295.214844 322.921875 L 294.6875 322.972656 C 294 323.039062 293.316406 323.101562 292.628906 323.148438 C 291.941406 323.1875 291.253906 323.199219 290.570312 323.1875 C 289.882812 323.1875 289.195312 323.160156 288.507812 323.132812 C 287.136719 323.066406 281.105469 323.28125 279.460938 323.347656 C 278.640625 323.367188 277.816406 323.324219 276.996094 323.285156 C 276.585938 323.265625 276.175781 323.246094 275.761719 323.210938 C 275.351562 323.175781 274.941406 323.113281 274.53125 323.066406 C 274.113281 323.015625 273.71875 322.972656 273.285156 322.945312 C 272.820312 322.898438 272.386719 322.675781 272.082031 322.328125 C 271.777344 321.980469 271.585938 321.503906 271.609375 321 C 271.625 320.492188 271.882812 319.96875 272.332031 319.644531 Z M 289.832031 298.636719 C 290.519531 298.65625 291.203125 298.671875 291.890625 298.710938 C 292.578125 298.742188 293.265625 298.800781 293.953125 298.847656 C 294.296875 298.871094 294.640625 298.898438 294.980469 298.914062 L 295.113281 298.921875 L 295.261719 298.9375 C 295.359375 298.953125 295.457031 298.972656 295.550781 299.003906 C 295.738281 299.058594 295.917969 299.148438 296.070312 299.269531 C 296.378906 299.503906 296.613281 299.839844 296.703125 300.214844 C 296.726562 300.308594 296.734375 300.40625 296.742188 300.5 C 296.753906 300.597656 296.75 300.691406 296.746094 300.789062 C 296.726562 300.980469 296.675781 301.167969 296.59375 301.34375 C 296.4375 301.699219 296.152344 302 295.792969 302.179688 C 295.613281 302.269531 295.417969 302.332031 295.214844 302.355469 L 294.6875 302.40625 C 294 302.472656 293.3125 302.535156 292.628906 302.582031 C 291.941406 302.621094 288.25 302.757812 287.425781 302.71875 C 287.015625 302.699219 286.605469 302.679688 286.195312 302.644531 C 285.78125 302.609375 285.371094 302.546875 284.960938 302.5 C 284.542969 302.449219 284.148438 302.40625 283.714844 302.378906 C 283.253906 302.332031 282.816406 302.109375 282.511719 301.761719 C 282.210938 301.414062 282.015625 300.9375 282.039062 300.433594 C 282.054688 299.925781 282.316406 299.402344 282.761719 299.078125 C 282.984375 298.917969 283.246094 298.808594 283.523438 298.765625 C 283.835938 298.722656 288.460938 298.601562 289.832031 298.636719 Z M 272.332031 278.511719 C 272.550781 278.351562 272.816406 278.242188 273.09375 278.199219 C 273.402344 278.15625 273.5625 278.179688 273.777344 278.179688 C 274.1875 278.183594 274.597656 278.207031 275.011719 278.238281 C 275.421875 278.269531 275.832031 278.3125 276.242188 278.375 C 276.65625 278.433594 282.96875 278.085938 285.714844 278.015625 C 287.085938 277.992188 288.460938 278.03125 289.832031 278.070312 C 290.519531 278.089844 291.207031 278.105469 291.890625 278.140625 C 292.578125 278.175781 293.265625 278.234375 293.953125 278.28125 C 294.296875 278.304688 294.640625 278.332031 294.984375 278.347656 L 295.113281 278.355469 L 295.261719 278.371094 C 295.359375 278.382812 295.457031 278.40625 295.550781 278.433594 C 295.738281 278.492188 295.917969 278.582031 296.074219 278.699219 C 296.378906 278.9375 296.613281 279.273438 296.703125 279.648438 C 296.726562 279.742188 296.734375 279.839844 296.742188 279.933594 C 296.753906 280.03125 296.75 280.125 296.746094 280.222656 C 296.726562 280.414062 296.675781 280.601562 296.59375 280.777344 C 296.4375 281.132812 296.152344 281.433594 295.792969 281.613281 C 295.617188 281.703125 295.417969 281.765625 295.214844 281.789062 L 294.6875 281.839844 C 294 281.90625 293.316406 281.96875 292.628906 282.011719 C 291.941406 282.054688 291.253906 282.066406 290.570312 282.054688 C 289.882812 282.050781 289.195312 282.027344 288.507812 282 C 287.136719 281.933594 281.105469 282.148438 279.460938 282.214844 C 278.640625 282.234375 277.816406 282.191406 276.996094 282.152344 C 276.585938 282.132812 276.175781 282.113281 275.761719 282.074219 C 275.351562 282.042969 274.941406 281.980469 274.53125 281.933594 C 274.113281 281.882812 273.71875 281.839844 273.285156 281.8125 C 272.820312 281.765625 272.386719 281.542969 272.082031 281.191406 C 271.777344 280.847656 271.585938 280.371094 271.609375 279.863281 C 271.625 279.359375 271.882812 278.835938 272.332031 278.511719 Z M 285.710938 257.449219 C 287.085938 257.425781 288.457031 257.464844 289.832031 257.503906 C 290.519531 257.519531 291.203125 257.539062 291.890625 257.574219 C 292.578125 257.609375 293.265625 257.667969 293.953125 257.714844 C 294.296875 257.738281 294.640625 257.765625 294.980469 257.78125 L 295.113281 257.789062 L 295.261719 257.800781 C 295.359375 257.816406 295.457031 257.839844 295.550781 257.867188 C 295.738281 257.925781 295.917969 258.015625 296.070312 258.132812 C 296.378906 258.371094 296.613281 258.707031 296.703125 259.082031 C 296.726562 259.175781 296.734375 259.269531 296.742188 259.367188 C 296.753906 259.460938 296.75 259.558594 296.746094 259.65625 C 296.726562 259.847656 296.675781 260.035156 296.59375 260.210938 C 296.4375 260.566406 296.152344 260.867188 295.792969 261.046875 C 295.613281 261.136719 295.417969 261.199219 295.214844 261.222656 L 294.6875 261.273438 C 294 261.335938 293.3125 261.402344 292.628906 261.445312 C 291.941406 261.488281 291.253906 261.5 290.570312 261.488281 C 289.882812 261.484375 289.195312 261.460938 288.507812 261.433594 C 287.136719 261.367188 285.371094 261.414062 284.960938 261.367188 C 284.546875 261.316406 284.148438 261.273438 283.71875 261.246094 C 283.253906 261.199219 282.820312 260.976562 282.515625 260.625 C 282.210938 260.277344 282.019531 259.804688 282.039062 259.296875 C 282.054688 258.792969 282.316406 258.269531 282.761719 257.945312 C 282.984375 257.78125 283.25 257.671875 283.523438 257.628906 C 283.835938 257.589844 284.4375 257.480469 285.710938 257.449219 Z M 102.207031 328.476562 C 102.371094 328.699219 102.480469 328.964844 102.523438 329.242188 C 102.5625 329.550781 102.539062 329.707031 102.539062 329.925781 C 102.535156 330.335938 102.511719 330.746094 102.480469 331.15625 C 102.449219 331.566406 102.410156 331.976562 102.34375 332.390625 C 102.285156 332.800781 102.632812 339.109375 102.703125 341.855469 C 102.726562 343.226562 102.6875 344.597656 102.648438 345.972656 C 102.632812 346.65625 102.613281 347.34375 102.578125 348.03125 C 102.542969 348.714844 102.484375 349.402344 102.4375 350.089844 C 102.414062 350.433594 102.386719 350.777344 102.371094 351.117188 L 102.363281 351.246094 L 102.351562 351.394531 C 102.335938 351.496094 102.3125 351.589844 102.285156 351.6875 C 102.226562 351.875 102.136719 352.050781 102.019531 352.207031 C 101.78125 352.515625 101.445312 352.746094 101.070312 352.835938 C 100.976562 352.863281 100.878906 352.867188 100.785156 352.878906 C 100.6875 352.890625 100.59375 352.886719 100.496094 352.878906 C 100.304688 352.859375 100.117188 352.8125 99.9375 352.730469 C 99.585938 352.570312 99.28125 352.289062 99.105469 351.929688 C 99.011719 351.75 98.953125 351.554688 98.929688 351.351562 L 98.878906 350.824219 C 98.8125 350.136719 98.746094 349.453125 98.703125 348.765625 C 98.664062 348.078125 98.652344 347.394531 98.660156 346.707031 C 98.664062 346.019531 98.6875 345.335938 98.71875 344.648438 C 98.785156 343.277344 98.566406 337.246094 98.503906 335.605469 C 98.480469 334.785156 98.523438 333.960938 98.5625 333.140625 C 98.585938 332.730469 98.601562 332.320312 98.640625 331.910156 C 98.675781 331.496094 98.738281 331.085938 98.785156 330.675781 C 98.835938 330.261719 98.878906 329.863281 98.902344 329.433594 C 98.953125 328.96875 99.171875 328.535156 99.523438 328.230469 C 99.871094 327.925781 100.347656 327.734375 100.851562 327.757812 C 101.359375 327.773438 101.882812 328.03125 102.207031 328.476562 Z M 123.226562 345.972656 C 123.210938 346.65625 123.191406 347.34375 123.15625 348.03125 C 123.121094 348.714844 123.0625 349.402344 123.015625 350.089844 C 122.992188 350.433594 122.964844 350.777344 122.949219 351.117188 L 122.941406 351.246094 L 122.925781 351.394531 C 122.914062 351.496094 122.890625 351.589844 122.863281 351.6875 C 122.804688 351.875 122.714844 352.050781 122.597656 352.207031 C 122.359375 352.515625 122.023438 352.746094 121.648438 352.835938 C 121.554688 352.863281 121.457031 352.867188 121.363281 352.878906 C 121.265625 352.890625 121.171875 352.886719 121.074219 352.878906 C 120.882812 352.859375 120.695312 352.8125 120.515625 352.730469 C 120.164062 352.570312 119.859375 352.289062 119.683594 351.929688 C 119.589844 351.75 119.53125 351.554688 119.507812 351.351562 L 119.457031 350.824219 C 119.390625 350.136719 119.324219 349.453125 119.28125 348.765625 C 119.242188 348.078125 119.101562 344.386719 119.140625 343.566406 C 119.160156 343.15625 119.179688 342.746094 119.21875 342.335938 C 119.253906 341.925781 119.316406 341.511719 119.363281 341.101562 C 119.414062 340.6875 119.457031 340.289062 119.480469 339.859375 C 119.527344 339.394531 119.75 338.960938 120.101562 338.65625 C 120.449219 338.351562 120.925781 338.160156 121.429688 338.183594 C 121.9375 338.199219 122.460938 338.457031 122.785156 338.90625 C 122.949219 339.125 123.058594 339.390625 123.101562 339.667969 C 123.140625 339.976562 123.265625 344.597656 123.226562 345.972656 Z M 143.363281 328.476562 C 143.523438 328.699219 143.636719 328.964844 143.675781 329.242188 C 143.71875 329.550781 143.695312 329.707031 143.695312 329.925781 C 143.691406 330.335938 143.667969 330.746094 143.636719 331.15625 C 143.605469 331.566406 143.566406 331.976562 143.5 332.390625 C 143.441406 332.800781 143.789062 339.109375 143.859375 341.855469 C 143.882812 343.226562 143.84375 344.597656 143.804688 345.972656 C 143.785156 346.65625 143.769531 347.34375 143.734375 348.03125 C 143.699219 348.714844 143.640625 349.402344 143.59375 350.089844 C 143.570312 350.433594 143.542969 350.777344 143.527344 351.117188 L 143.519531 351.246094 L 143.503906 351.394531 C 143.492188 351.496094 143.46875 351.589844 143.441406 351.6875 C 143.382812 351.875 143.292969 352.050781 143.175781 352.207031 C 142.9375 352.515625 142.601562 352.746094 142.226562 352.835938 C 142.132812 352.863281 142.035156 352.867188 141.941406 352.878906 C 141.84375 352.890625 141.75 352.886719 141.652344 352.878906 C 141.460938 352.859375 141.269531 352.8125 141.09375 352.730469 C 140.742188 352.570312 140.4375 352.289062 140.261719 351.929688 C 140.167969 351.75 140.109375 351.554688 140.085938 351.351562 L 140.035156 350.824219 C 139.96875 350.136719 139.902344 349.453125 139.859375 348.765625 C 139.816406 348.078125 139.804688 347.394531 139.816406 346.707031 C 139.820312 346.019531 139.84375 345.335938 139.875 344.648438 C 139.941406 343.277344 139.722656 337.246094 139.660156 335.605469 C 139.636719 334.785156 139.679688 333.960938 139.71875 333.140625 C 139.738281 332.730469 139.757812 332.320312 139.796875 331.910156 C 139.832031 331.496094 139.894531 331.085938 139.941406 330.675781 C 139.992188 330.261719 140.035156 329.863281 140.058594 329.433594 C 140.105469 328.96875 140.328125 328.535156 140.679688 328.230469 C 141.027344 327.925781 141.5 327.734375 142.007812 327.757812 C 142.515625 327.773438 143.039062 328.03125 143.363281 328.476562 Z M 164.433594 341.855469 C 164.460938 343.226562 164.417969 344.597656 164.382812 345.972656 C 164.363281 346.65625 164.347656 347.34375 164.308594 348.03125 C 164.277344 348.714844 164.214844 349.402344 164.171875 350.089844 C 164.148438 350.433594 164.121094 350.777344 164.105469 351.117188 L 164.097656 351.246094 L 164.082031 351.394531 C 164.066406 351.496094 164.046875 351.589844 164.015625 351.6875 C 163.960938 351.875 163.867188 352.050781 163.75 352.207031 C 163.511719 352.515625 163.179688 352.746094 162.800781 352.835938 C 162.707031 352.863281 162.613281 352.867188 162.515625 352.878906 C 162.421875 352.890625 162.324219 352.886719 162.230469 352.878906 C 162.039062 352.859375 161.847656 352.8125 161.671875 352.730469 C 161.320312 352.570312 161.015625 352.289062 160.835938 351.929688 C 160.746094 351.75 160.6875 351.554688 160.664062 351.351562 L 160.613281 350.824219 C 160.546875 350.136719 160.480469 349.453125 160.4375 348.765625 C 160.394531 348.078125 160.382812 347.394531 160.394531 346.707031 C 160.398438 346.019531 160.421875 345.335938 160.453125 344.648438 C 160.519531 343.277344 160.46875 341.511719 160.515625 341.101562 C 160.566406 340.6875 160.613281 340.292969 160.636719 339.859375 C 160.683594 339.394531 160.90625 338.960938 161.257812 338.65625 C 161.605469 338.351562 162.078125 338.160156 162.585938 338.183594 C 163.09375 338.199219 163.617188 338.457031 163.941406 338.90625 C 164.101562 339.125 164.210938 339.390625 164.253906 339.667969 C 164.296875 339.976562 164.402344 340.578125 164.433594 341.855469 Z M 184.519531 328.476562 C 184.679688 328.699219 184.789062 328.964844 184.832031 329.242188 C 184.871094 329.550781 184.851562 329.707031 184.851562 329.925781 C 184.84375 330.335938 184.824219 330.746094 184.792969 331.15625 C 184.761719 331.566406 184.71875 331.976562 184.65625 332.390625 C 184.59375 332.800781 184.945312 339.109375 185.011719 341.855469 C 185.039062 343.226562 184.996094 344.597656 184.960938 345.972656 C 184.941406 346.65625 184.925781 347.34375 184.886719 348.03125 C 184.855469 348.714844 184.792969 349.402344 184.75 350.089844 C 184.726562 350.433594 184.699219 350.777344 184.683594 351.117188 L 184.675781 351.246094 L 184.660156 351.394531 C 184.644531 351.496094 184.625 351.589844 184.59375 351.6875 C 184.539062 351.875 184.445312 352.050781 184.328125 352.207031 C 184.089844 352.515625 183.757812 352.746094 183.378906 352.835938 C 183.285156 352.863281 183.191406 352.867188 183.09375 352.878906 C 183 352.890625 182.902344 352.886719 182.808594 352.878906 C 182.617188 352.859375 182.425781 352.8125 182.25 352.730469 C 181.898438 352.570312 181.59375 352.289062 181.414062 351.929688 C 181.324219 351.75 181.265625 351.554688 181.238281 351.351562 L 181.191406 350.824219 C 181.125 350.136719 181.058594 349.453125 181.015625 348.765625 C 180.972656 348.078125 180.960938 347.394531 180.972656 346.707031 C 180.976562 346.019531 181 345.335938 181.03125 344.648438 C 181.097656 343.277344 180.878906 337.246094 180.816406 335.605469 C 180.792969 334.785156 180.835938 333.960938 180.875 333.140625 C 180.894531 332.730469 180.914062 332.320312 180.953125 331.910156 C 180.988281 331.496094 181.046875 331.085938 181.09375 330.675781 C 181.144531 330.261719 181.191406 329.863281 181.214844 329.433594 C 181.261719 328.96875 181.484375 328.535156 181.835938 328.230469 C 182.183594 327.925781 182.65625 327.734375 183.164062 327.757812 C 183.671875 327.773438 184.195312 328.03125 184.519531 328.476562 Z M 205.589844 341.855469 C 205.617188 343.226562 205.574219 344.597656 205.539062 345.972656 C 205.519531 346.65625 205.503906 347.34375 205.464844 348.03125 C 205.433594 348.714844 205.371094 349.402344 205.328125 350.089844 C 205.304688 350.433594 205.277344 350.777344 205.261719 351.117188 L 205.253906 351.246094 L 205.238281 351.394531 C 205.222656 351.496094 205.203125 351.589844 205.171875 351.6875 C 205.117188 351.875 205.023438 352.050781 204.90625 352.207031 C 204.667969 352.515625 204.335938 352.746094 203.957031 352.835938 C 203.863281 352.863281 203.769531 352.867188 203.671875 352.878906 C 203.578125 352.890625 203.480469 352.886719 203.386719 352.878906 C 203.195312 352.859375 203.003906 352.8125 202.828125 352.730469 C 202.476562 352.570312 202.171875 352.289062 201.992188 351.929688 C 201.902344 351.75 201.84375 351.554688 201.816406 351.351562 L 201.769531 350.824219 C 201.703125 350.136719 201.636719 349.453125 201.59375 348.765625 C 201.550781 348.078125 201.414062 344.386719 201.453125 343.566406 C 201.472656 343.15625 201.492188 342.746094 201.53125 342.335938 C 201.566406 341.925781 201.625 341.511719 201.671875 341.101562 C 201.722656 340.6875 201.769531 340.289062 201.792969 339.859375 C 201.839844 339.394531 202.0625 338.960938 202.414062 338.65625 C 202.761719 338.351562 203.234375 338.160156 203.742188 338.183594 C 204.25 338.199219 204.773438 338.457031 205.097656 338.90625 C 205.257812 339.125 205.367188 339.390625 205.410156 339.667969 C 205.449219 339.976562 205.558594 340.578125 205.589844 341.855469 Z M 225.671875 328.476562 C 225.835938 328.699219 225.945312 328.964844 225.988281 329.242188 C 226.027344 329.550781 226.007812 329.707031 226.007812 329.925781 C 226 330.335938 225.980469 330.746094 225.949219 331.15625 C 225.917969 331.566406 225.875 331.976562 225.808594 332.390625 C 225.75 332.800781 226.101562 339.109375 226.167969 341.855469 C 226.195312 343.226562 226.152344 344.597656 226.117188 345.972656 C 226.097656 346.65625 226.082031 347.34375 226.042969 348.03125 C 226.011719 348.714844 225.949219 349.402344 225.90625 350.089844 C 225.882812 350.433594 225.855469 350.777344 225.835938 351.117188 L 225.832031 351.246094 L 225.816406 351.394531 C 225.800781 351.496094 225.78125 351.589844 225.75 351.6875 C 225.695312 351.875 225.601562 352.050781 225.484375 352.207031 C 225.246094 352.515625 224.914062 352.746094 224.535156 352.835938 C 224.441406 352.863281 224.347656 352.867188 224.25 352.878906 C 224.15625 352.890625 224.058594 352.886719 223.964844 352.878906 C 223.773438 352.859375 223.582031 352.8125 223.40625 352.730469 C 223.054688 352.570312 222.75 352.289062 222.570312 351.929688 C 222.480469 351.75 222.417969 351.554688 222.394531 351.351562 L 222.34375 350.824219 C 222.28125 350.136719 222.214844 349.453125 222.171875 348.765625 C 222.128906 348.078125 222.117188 347.394531 222.128906 346.707031 C 222.132812 346.019531 222.15625 345.335938 222.183594 344.648438 C 222.25 343.277344 222.035156 337.246094 221.972656 335.605469 C 221.949219 334.785156 221.992188 333.960938 222.03125 333.140625 C 222.050781 332.730469 222.070312 332.320312 222.109375 331.910156 C 222.140625 331.496094 222.203125 331.085938 222.25 330.675781 C 222.300781 330.261719 222.34375 329.863281 222.371094 329.433594 C 222.417969 328.96875 222.640625 328.535156 222.992188 328.230469 C 223.339844 327.925781 223.8125 327.734375 224.320312 327.757812 C 224.824219 327.773438 225.347656 328.03125 225.671875 328.476562 Z M 243.148438 351.929688 C 243.058594 351.75 242.996094 351.554688 242.972656 351.351562 L 242.921875 350.824219 C 242.855469 350.136719 242.792969 349.453125 242.746094 348.765625 C 242.707031 348.078125 242.566406 344.390625 242.609375 343.566406 C 242.628906 343.15625 242.648438 342.746094 242.683594 342.335938 C 242.71875 341.925781 242.78125 341.511719 242.828125 341.101562 C 242.878906 340.6875 242.921875 340.292969 242.949219 339.859375 C 242.996094 339.394531 243.21875 338.960938 243.570312 338.65625 C 243.914062 338.351562 244.390625 338.160156 244.898438 338.183594 C 245.402344 338.199219 245.925781 338.457031 246.25 338.90625 C 246.414062 339.125 246.523438 339.390625 246.566406 339.667969 C 246.605469 339.976562 246.714844 340.578125 246.746094 341.851562 C 246.769531 343.226562 246.730469 344.597656 246.695312 345.96875 C 246.675781 346.65625 246.65625 347.34375 246.621094 348.027344 C 246.589844 348.714844 246.527344 349.402344 246.480469 350.089844 C 246.460938 350.429688 246.429688 350.773438 246.414062 351.117188 L 246.40625 351.246094 L 246.394531 351.394531 C 246.378906 351.496094 246.355469 351.589844 246.328125 351.683594 C 246.269531 351.875 246.179688 352.050781 246.0625 352.207031 C 245.824219 352.515625 245.492188 352.746094 245.113281 352.835938 C 245.019531 352.859375 244.925781 352.867188 244.828125 352.875 C 244.734375 352.890625 244.636719 352.886719 244.539062 352.878906 C 244.347656 352.859375 244.160156 352.8125 243.984375 352.730469 C 243.628906 352.574219 243.328125 352.289062 243.148438 351.929688 Z M 263.726562 351.929688 C 263.632812 351.75 263.574219 351.554688 263.550781 351.351562 L 263.5 350.824219 C 263.433594 350.136719 263.371094 349.453125 263.324219 348.765625 C 263.285156 348.078125 263.273438 347.394531 263.28125 346.707031 C 263.285156 346.019531 263.3125 345.335938 263.339844 344.648438 C 263.40625 343.277344 263.1875 337.246094 263.125 335.605469 C 263.101562 334.785156 263.148438 333.964844 263.1875 333.140625 C 263.207031 332.730469 263.222656 332.320312 263.261719 331.910156 C 263.296875 331.5 263.359375 331.085938 263.40625 330.675781 C 263.457031 330.261719 263.5 329.863281 263.527344 329.433594 C 263.574219 328.96875 263.796875 328.535156 264.144531 328.230469 C 264.492188 327.925781 264.96875 327.734375 265.476562 327.757812 C 265.980469 327.773438 266.503906 328.03125 266.828125 328.480469 C 266.992188 328.699219 267.101562 328.964844 267.144531 329.242188 C 267.183594 329.550781 267.164062 329.707031 267.164062 329.925781 C 267.15625 330.335938 267.136719 330.746094 267.105469 331.15625 C 267.070312 331.566406 267.03125 331.980469 266.964844 332.390625 C 266.90625 332.800781 267.253906 339.109375 267.324219 341.855469 C 267.347656 343.226562 267.308594 344.597656 267.273438 345.972656 C 267.253906 346.65625 267.234375 347.34375 267.199219 348.03125 C 267.167969 348.714844 267.105469 349.402344 267.058594 350.089844 C 267.039062 350.433594 267.007812 350.777344 266.992188 351.117188 L 266.984375 351.25 L 266.972656 351.398438 C 266.957031 351.496094 266.933594 351.59375 266.90625 351.6875 C 266.847656 351.875 266.757812 352.054688 266.640625 352.207031 C 266.402344 352.515625 266.070312 352.75 265.691406 352.835938 C 265.597656 352.863281 265.503906 352.871094 265.40625 352.878906 C 265.3125 352.890625 265.214844 352.886719 265.117188 352.878906 C 264.925781 352.859375 264.738281 352.8125 264.5625 352.730469 C 264.207031 352.574219 263.90625 352.289062 263.726562 351.929688 Z M 263.726562 351.929688 " fill-opacity="1" fill-rule="nonzero"/></svg>